<svg width="294" height="240" viewBox="0 0 294 240" fill="none" xmlns="http://www.w3.org/2000/svg">
<path d="M20.4651 120C20.4651 186.273 74.24 240 140.573 240C206.907 240 260.681 186.273 260.681 120C260.681 53.7258 206.907 0 140.573 0C74.24 0 20.4651 53.7258 20.4651 120Z" fill="#F4FAFF"/>
<path d="M171.591 92.7319C177.06 98.3536 172.099 112.091 163.378 110.103C154.006 107.966 155.416 93.3748 163.89 90.9791C167.195 90.0449 169.831 90.9224 171.591 92.7319Z" fill="#0092FF"/>
<path d="M128.136 110.828C130.219 112.842 132.635 114.4 135.502 115.055C140.962 116.302 146.091 113.9 150.646 111.134C155.513 108.178 160.367 105.183 164.959 101.808C168.242 99.3957 171.603 96.8323 173.648 93.2261C176.02 89.0457 176.158 84.02 175.674 79.3536C175.344 76.1668 176.832 73.3069 177.487 70.2687C178.763 64.3541 177.457 57.3707 171.935 53.9782C169.117 52.2464 166.169 52.5029 163.202 53.7765C160.93 54.752 158.81 56.1093 156.431 56.7847C151.365 58.2224 145.87 56.2428 140.909 55.2229C137.315 54.4843 133.385 54.0976 129.842 55.2824C125.898 56.601 124.021 59.4841 121.868 62.8209C120.027 65.673 117.235 67.8253 115.01 70.3624C112.03 73.7622 111.123 78.0609 112.126 82.4425C113.598 88.8719 117.3 94.3979 120.514 100.039C122.569 103.645 124.97 107.765 128.136 110.828Z" fill="#0B2D4E"/>
<path d="M168.777 171.899C162.219 161.803 158.138 149.412 163.837 138.011C164.414 136.856 165.109 135.596 166.335 135.188C168.973 134.312 172.552 135.254 174.846 136.6C182.803 141.264 187.672 150.041 192.142 157.85C196.786 165.962 200.819 174.408 205.486 182.508C207.376 185.79 209.285 189.115 210.299 192.762C211.187 195.958 211.285 199.615 210.073 202.742C204.834 216.258 190.428 199.702 186.044 194.699C179.787 187.562 173.944 179.86 168.777 171.899Z" fill="#0092FF"/>
<path d="M136.092 110.67C136.793 111.418 137.612 112.049 138.54 112.507C140.929 113.691 143.792 113.633 146.342 112.851C148.892 112.068 151.181 110.619 153.36 109.081C159.252 104.922 166.539 99.4194 170.046 93.0248C172.208 89.0837 173.812 84.4309 171.743 80.1292C169.966 76.4334 166.355 73.7033 162.223 73.3143C161.885 73.2825 161.529 73.2684 161.223 73.4146C160.876 73.58 160.653 73.9209 160.453 74.2486C158.963 76.6937 157.773 79.3561 155.952 81.5862C153.97 84.0116 151.519 85.8258 148.847 87.4455C144.527 90.0644 139.784 91.996 135.722 94.997C132.787 97.1639 132.71 102.041 133.425 105.424C133.834 107.361 134.747 109.234 136.092 110.67Z" fill="#061F33"/>
<path d="M103.136 158.276C101.059 150.702 99.9827 142.952 104.689 137.793C106.813 135.462 110.598 133.84 113.697 132.686C119.739 130.436 125.918 127.411 132.386 126.43C139.206 125.396 146.79 124.76 153.587 126.238C157.904 127.177 161.944 128.915 165.804 130.791C170.986 133.309 174.677 135.001 176.339 140.178C178.184 145.922 179.303 151.823 179.927 157.754C181.755 175.116 179.337 192.523 179.395 209.892C179.401 211.6 179.374 213.376 178.507 214.91C176.796 217.938 172.146 217.98 168.797 217.975C157.758 217.958 146.719 217.941 135.68 217.926C131.086 217.919 127.578 218.404 123.265 219.166C119.637 219.809 116.521 218.232 114.781 215.322C113.133 212.568 113.007 209.353 112.83 206.257C112.144 194.217 110.161 182.232 106.915 170.505C105.998 167.185 104.387 162.842 103.136 158.276Z" fill="#0092FF"/>
<path d="M129.839 136.951C127.502 133.185 126.971 128.478 130.032 124.85C131.431 123.191 133.907 123.004 136.025 122.967C140.191 122.892 144.367 123.317 148.424 124.226C152.292 125.093 156.235 126.561 157.91 130.302C159.155 133.083 158.72 136.298 157.081 138.841C155.591 141.151 153.121 142.86 150.364 143.49C145.913 144.503 140.703 144.367 136.457 142.66C133.796 141.59 131.409 139.482 129.839 136.951Z" fill="#006CBD"/>
<path d="M173.197 213.336C168.754 215.43 163.897 216.485 159.052 217.295C145.581 211.191 131.762 216.371 118.029 215.718C115.094 215.577 111.933 219.661 109.767 217.675C108.155 216.198 107.284 218.018 106.745 215.9C104.906 208.687 104.931 201.147 104.969 193.703C104.999 187.896 105.028 182.087 105.057 176.28C105.068 174.257 103.755 161.95 106.903 162.09C107.242 162.105 107.553 162.28 107.829 162.478C109.395 163.597 110.201 165.471 110.933 167.251C113.226 172.83 115.153 181.76 119.929 185.666C124.945 189.769 130.725 191.679 136.803 193.645C147.344 197.056 159.105 198.537 168.033 205.561C169.52 206.731 170.937 208.027 172.314 209.325C173.554 210.494 175.255 211.703 175.996 213.336C177.152 215.883 175.338 212.328 173.197 213.336Z" fill="#006CBD"/>
<path d="M79.363 177.022C77.686 180.043 76.0209 183.069 74.3847 186.114C71.0648 192.295 64.8999 206.029 74.7678 209.421C79.7409 211.131 82.5859 209.459 85.8735 205.841C98.3072 192.147 108.911 176.799 117.313 160.33C120.44 154.199 128.745 138.227 118.659 134.577C115.474 133.425 111.803 133.692 108.82 135.296C107.455 136.029 106.246 137.016 105.09 138.047C97.8117 144.531 92.6275 152.9 88.017 161.388C85.1669 166.632 82.2488 171.82 79.363 177.022Z" fill="#0092FF"/>
<path d="M129.646 199.215C128.777 199.068 127.907 198.926 127.036 198.791C122.8 198.135 118.579 197.357 114.382 196.459C106.071 194.68 97.7128 193.151 89.2529 192.353C88.3574 192.269 87.4601 192.193 86.5612 192.125C82.7696 191.839 78.7959 191.74 75.3295 193.506C71.8614 195.272 69.1084 199.456 69.9631 203.498C70.5641 206.335 72.7876 208.475 75.258 209.557C77.7284 210.637 80.4456 210.829 83.1118 211.01C91.7488 211.591 100.384 212.175 109.019 212.756C113.296 213.042 117.571 213.338 121.846 213.636C125.929 213.92 130.075 214.49 134.168 214.493C135.899 214.495 137.832 214.18 139.286 213.054C141.305 211.489 142.517 208.15 142.708 205.541C142.807 204.185 142.534 202.538 141.47 201.698C140.9 201.249 140.176 201.11 139.48 200.984C136.197 200.388 132.93 199.768 129.646 199.215Z" fill="#0092FF"/>
<path d="M163.077 202.272H204.026V210.282H163.077V202.272Z" fill="#C4CCCC"/>
<path d="M197.005 203.048L207.34 150.482C207.613 149.092 208.831 148.092 210.247 148.092H278.95C279.944 148.092 280.796 148.584 281.331 149.312L281.34 149.303L284.512 153.051L281.698 152.435L271.523 204.19C271.25 205.578 270.031 206.58 268.615 206.58H199.913C198.047 206.58 196.645 204.877 197.005 203.048Z" fill="#C4CCCC"/>
<path d="M271.75 210.267H203.048C201.182 210.267 199.78 208.564 200.14 206.736L210.475 154.169C210.748 152.781 211.966 151.779 213.382 151.779H282.085C283.95 151.779 285.352 153.482 284.992 155.311L274.658 207.877C274.385 209.265 273.166 210.267 271.75 210.267Z" fill="white"/>
<path d="M250.148 179.72C249.514 183.267 246.124 186.142 242.575 186.142C239.025 186.142 236.703 183.267 237.388 179.72C238.072 176.175 241.463 173.301 244.961 173.301C248.46 173.301 250.782 176.175 250.148 179.72Z" fill="#DCE3E5"/>
<path d="M139.419 212.065C141.461 212.487 143.055 214.278 145.087 214.876C146.537 215.305 148.089 215.077 149.482 214.555C150.763 214.074 152.065 213.817 153.38 213.397C154.405 213.068 155.789 212.378 156.89 212.607C159.776 213.208 162.653 215.259 165.269 216.591C165.857 216.89 166.501 217.198 167.15 217.076C167.799 216.953 168.339 216.168 167.97 215.621C168.723 216.324 169.719 217.727 170.933 217.183C171.43 216.96 171.729 216.304 171.454 215.834C171.871 216.292 172.309 216.763 172.885 216.991C173.461 217.217 174.217 217.118 174.556 216.601C174.716 216.358 174.764 216.059 174.779 215.768C174.828 214.766 174.526 213.778 174.109 212.868C172.048 208.375 167.39 205.043 163.426 202.367C162.724 201.893 162.01 201.413 161.201 201.166C160.476 200.945 159.708 200.921 158.951 200.918C154.035 200.896 149.116 201.688 144.458 203.257C143.45 203.597 142.339 203.308 141.335 203.119C140.591 202.981 139.814 202.842 139.087 203.054C138.273 203.293 137.643 203.936 137.148 204.623C136.237 205.885 135.541 207.557 135.65 209.142C135.732 210.347 135.823 211.646 137.242 211.898C137.817 212.002 138.41 211.937 138.99 211.998C139.135 212.014 139.278 212.036 139.419 212.065Z" fill="#FECBA5"/>
<path d="M138.547 139.435C135.543 138.473 133.07 136.607 132.143 133.642C131.302 130.951 132.629 127.925 132.864 125.21C133.09 122.607 133.121 119.989 132.949 117.383C132.79 114.975 132.56 112.466 132.93 110.064C133.141 108.691 133.895 108.926 135.285 108.382C136.674 107.836 138.233 107.831 139.743 107.836C142.835 107.842 150.894 107.618 152.804 110.329C153.682 111.573 153.75 113.139 153.792 114.619C153.842 116.409 154.159 118.726 154.453 121.219C154.583 122.332 154.503 123.437 154.673 124.541C154.864 125.776 155.333 126.96 155.745 128.144C157.3 132.619 155.844 136.875 151 138.925C147.524 140.395 142.562 140.723 138.547 139.435Z" fill="#FECBA5"/>
<path d="M132.942 110.064C133.152 108.691 133.906 108.926 135.295 108.382C136.684 107.836 138.244 107.831 139.754 107.836C142.846 107.842 150.905 107.618 152.815 110.329C153.692 111.573 153.761 113.139 153.803 114.619C153.853 116.409 154.17 118.726 154.464 121.219C154.594 122.332 154.514 123.437 154.684 124.541C154.829 125.482 155.136 126.392 155.456 127.297C152.459 128.408 149.074 128.656 145.948 127.887C140.316 126.503 136.051 123 133.009 118.447C132.993 118.091 132.983 117.737 132.959 117.383C132.801 114.975 132.571 112.466 132.942 110.064Z" fill="#E58C6C"/>
<path d="M127.996 92.4325C128.021 88.308 128.59 84.3955 129.652 81.1466C134.236 67.1292 151.738 63.6661 162.277 73.7279C174.03 84.949 169.532 111.779 157.153 121.202C153.843 123.721 149.345 124.608 145.325 123.531C133.161 120.272 127.919 105.316 127.996 92.4325Z" fill="#FECBA5"/>
<path d="M130.108 81.1466C134.692 67.1292 152.194 63.6661 162.733 73.7279C164.065 74.9993 165.177 76.4791 166.104 78.1031C165.484 78.6318 164.831 79.0842 164.256 79.4297C159.815 82.0966 154.986 84.1164 149.969 85.4056C147.811 85.9601 145.54 86.416 143.772 87.77C142.757 88.5468 141.992 89.5521 141.374 90.6673C140.632 92.0077 140.101 93.5068 139.602 94.959C138.511 98.1416 138.03 101.489 137.588 104.811C137.543 105.157 137.482 105.529 137.229 105.767C136.988 105.995 136.629 106.041 136.299 106.033C134.358 105.983 133.422 104.124 131.91 103.139C131.001 102.546 130.093 101.942 129.228 101.285C128.69 98.3338 128.435 95.3308 128.452 92.4325C128.477 88.308 129.046 84.3955 130.108 81.1466Z" fill="#E58C6C"/>
<path d="M139.4 90.127C138.838 91.5521 138.506 93.1073 138.2 94.6117C137.531 97.9093 137.488 101.291 137.481 104.642C137.48 104.989 137.469 105.368 137.248 105.637C137.039 105.892 136.69 105.986 136.359 106.02C134.429 106.22 133.259 104.499 131.633 103.718C129.946 102.909 128.245 102.089 126.771 100.935C122.576 97.6507 123.534 92.2292 123.667 87.4092C123.74 84.7611 123.818 82.075 124.596 79.5424C125.443 76.7796 127.094 74.3141 129.061 72.1947C134.737 66.0753 143.303 62.894 151.597 63.4161C155.703 63.6744 160.336 65.411 163.262 68.3652C165.785 70.9129 162.711 74.3737 160.632 76.0228C156.575 79.2418 152.049 81.8695 147.241 83.7973C145.173 84.6262 142.98 85.3723 141.402 86.9437C140.497 87.8454 139.868 88.9412 139.4 90.127Z" fill="#0B2D4E"/>
<path d="M130.76 92.7778C125.377 89.8364 123.718 97.285 124.645 100.992C125.028 102.522 125.632 104.016 126.584 105.275C127.864 106.972 131.53 109.786 133.639 107.93C134.598 107.088 134.696 105.657 134.725 104.383C134.804 100.966 134.41 94.7717 130.76 92.7778Z" fill="#F8A17A"/>
<path d="M158.969 107.293C157.308 107.208 150.774 106.717 148.57 106.792C146.336 106.867 147.458 115.578 153.214 116.149C158.594 116.682 161.157 107.404 158.969 107.293Z" fill="#802419"/>
<path d="M159.603 107.792C159.476 107.483 159.267 107.298 158.968 107.283C157.307 107.198 150.771 106.707 148.568 106.781C148.143 106.796 147.839 107.123 147.666 107.646C148.516 108.786 150.354 109.313 154.401 109.563C157.536 109.758 158.958 108.749 159.603 107.792Z" fill="white"/>
<path d="M173.576 77.6989C174.499 75.1186 175.775 72.7573 176.81 70.4138C177.848 68.0696 178.641 65.751 178.641 63.2493C178.641 61.8999 178.411 60.4936 177.858 58.9886C176.334 54.8418 172.455 52.1447 168.046 52.0775C167.987 52.0765 167.928 52.0762 167.869 52.0762C165.851 52.076 163.837 52.5945 162.087 53.5957C161.02 54.205 160.119 55.025 159.149 55.7987C158.179 56.5704 157.131 57.2969 155.773 57.6623C154.85 57.911 153.922 58.0185 152.997 58.0185C150.323 58.017 147.671 57.1283 145.078 56.1418C142.487 55.1533 139.95 54.0641 137.542 53.6183C136.548 53.4336 135.542 53.3395 134.546 53.3395C132.237 53.3395 129.981 53.8454 128.029 54.8927C126.076 55.9409 124.424 57.526 123.304 59.7078C122.766 60.7537 122.376 61.9017 121.937 63.0429C121.496 64.1837 121.006 65.3198 120.248 66.3302C119.616 67.1734 118.842 67.8692 118.014 68.4945C116.771 69.4321 115.406 70.2156 114.187 71.0882C112.966 71.9609 111.9 72.916 111.218 74.1805C110.663 75.2107 110.423 76.3253 110.423 77.5021C110.419 80.0597 111.579 82.904 113.087 85.5515C114.594 88.2003 116.438 90.6511 117.771 92.4661L117.222 92.8686C115.893 91.0575 114.03 88.5853 112.495 85.8878C110.962 83.1888 109.745 80.2635 109.742 77.5021C109.742 76.2333 110.004 74.9977 110.618 73.8577C111.122 72.9236 111.807 72.1567 112.578 71.4842C113.736 70.4759 115.087 69.673 116.363 68.8235C117.638 67.9747 118.835 67.0817 119.703 65.9223C120.398 64.9971 120.868 63.9225 121.302 62.7983C121.734 61.6748 122.131 60.5037 122.698 59.3975C123.879 57.0909 125.642 55.3996 127.707 54.2931C129.772 53.1859 132.138 52.6593 134.546 52.6591C135.584 52.6591 136.631 52.7571 137.667 52.9493C140.183 53.4179 142.746 54.526 145.321 55.5061C147.896 56.4883 150.477 57.3396 152.997 57.3381C153.87 57.3381 154.736 57.2369 155.596 57.0054C156.816 56.6769 157.777 56.021 158.725 55.2666C159.671 54.5141 160.598 53.6644 161.749 53.0052C163.607 51.9428 165.735 51.3959 167.869 51.3958C167.932 51.3958 167.994 51.3963 168.056 51.3971C172.739 51.4662 176.877 54.3414 178.498 58.754C179.077 60.3309 179.322 61.8223 179.322 63.2493C179.321 65.8983 178.484 68.313 177.433 70.6889C176.382 73.0655 175.116 75.4109 174.217 77.9277L173.576 77.6989Z" fill="#0B2D4E"/>
<path d="M148.294 117.268C149.614 117.268 150.943 117.171 152.273 116.974L152.035 115.361C147.203 116.072 142.383 115.4 138.097 113.415C136.935 112.878 135.947 112.311 135.082 111.685C133.509 110.546 132.157 109.059 131.177 107.382L129.767 108.207C130.862 110.076 132.368 111.735 134.124 113.005C135.075 113.694 136.151 114.312 137.411 114.895C140.804 116.467 144.507 117.268 148.294 117.268Z" fill="#0092FF"/>
<path d="M156.999 114.139C155.03 112.452 150.651 112.595 149.207 114.349C148.137 115.646 148.464 117.296 149.642 118.394C151.036 119.693 152.759 119.618 154.498 119.227C156.674 118.736 159.372 116.174 156.999 114.139Z" fill="#0092FF"/>
<path d="M158.704 63.0842C158.229 63.0999 157.757 63.1366 157.283 63.123C156.811 63.1317 156.338 63.1087 155.867 63.089C154.923 63.0298 153.984 62.933 153.049 62.7976C151.177 62.5414 149.316 62.183 147.427 61.9333C145.542 61.6736 143.615 61.5545 141.697 61.6809C141.217 61.7098 140.739 61.7607 140.26 61.833C139.782 61.9037 139.305 61.9937 138.834 62.115C137.89 62.3499 136.968 62.7003 136.111 63.1861C135.686 63.4358 135.279 63.7201 134.902 64.0397C134.528 64.3632 134.182 64.7174 133.867 65.0994C133.559 65.4871 133.285 65.9023 133.054 66.3422C132.825 66.7839 132.648 67.2541 132.529 67.7397C132.403 68.2245 132.361 68.7308 132.374 69.232C132.381 69.7376 132.481 70.226 132.587 70.6925C132.694 71.1596 132.812 71.6119 132.883 72.0608C132.958 72.5079 132.967 72.9539 132.922 73.4036C132.829 74.3035 132.504 75.18 132.105 76.0222C131.707 76.8682 131.227 77.6812 130.782 78.5257C130.346 79.373 129.96 80.2587 129.737 81.1926C129.626 81.6588 129.56 82.137 129.563 82.6158C129.57 83.0941 129.648 83.5706 129.803 84.0186C129.556 83.0977 129.648 82.1322 129.911 81.2387C130.178 80.3402 130.6 79.4963 131.075 78.686C131.548 77.8739 132.063 77.0719 132.505 76.22C132.948 75.3705 133.317 74.452 133.448 73.466C133.513 72.9763 133.517 72.4669 133.447 71.9778C133.38 71.4893 133.266 71.0219 133.169 70.5646C133.076 70.1072 132.992 69.6599 132.994 69.2166C132.991 68.7731 133.035 68.3264 133.154 67.8957C133.271 67.4654 133.426 67.0433 133.637 66.645C133.85 66.2481 134.101 65.8713 134.385 65.5184C134.674 65.1707 134.994 64.8477 135.338 64.5525C135.686 64.2608 136.06 64.0041 136.452 63.7757C137.242 63.321 138.105 62.9864 138.999 62.7585C139.891 62.5256 140.815 62.3974 141.745 62.3215C143.612 62.1624 145.488 62.2633 147.364 62.4584C149.239 62.6603 151.117 62.9483 153.011 63.1271C153.958 63.2127 154.91 63.2596 155.861 63.2683C156.813 63.2741 157.764 63.2069 158.704 63.0842Z" fill="#73B8D4"/>
<path d="M128.493 90.6768C136.093 92.624 139.03 106.929 130.551 109.778C121.439 112.838 115.028 99.6536 121.007 93.1933C123.339 90.6742 126.046 90.0498 128.493 90.6768Z" fill="#0092FF"/>
<path d="M125.999 92.4601C131.247 93.3025 134.48 104.439 129.073 107.504C123.262 110.799 117.808 100.88 121.227 95.168C122.56 92.9403 124.312 92.189 125.999 92.4601Z" fill="#2BA4FF"/>
<path d="M124.942 91.6594L126.97 91.425C125.594 79.5522 126.182 64.3824 136.78 59.537C141.799 57.2425 146.38 55.5978 154.541 57.2017C155.733 57.0422 156.651 56.6002 156.651 56.6002C149.271 52.9983 141.35 55.2062 135.93 57.6829C124.217 63.0379 123.49 79.115 124.942 91.6594Z" fill="#0092FF"/>
<path d="M96.9297 79.1927H27.2412C23.4037 79.1927 20.2608 76.0543 20.2608 72.2185V35.4187C20.2608 31.5831 23.4037 28.4446 27.2412 28.4446H96.9297C100.769 28.4446 103.91 31.5831 103.91 35.4187V72.2185C103.91 76.0543 100.769 79.1927 96.9297 79.1927Z" fill="#FF9900"/>
<path d="M92.9043 92.5512V69.2302L74.6241 79.1927L92.9043 92.5512Z" fill="#FF9900"/>
<path d="M51.2968 56.1246H89.6397C90.4825 56.1246 91.172 55.4358 91.172 54.5937V53.2279C91.172 52.3858 90.4825 51.697 89.6397 51.697H51.2968C50.454 51.697 49.7645 52.3858 49.7645 53.2279V54.5937C49.7645 55.4358 50.454 56.1246 51.2968 56.1246Z" fill="white"/>
<path d="M34.5342 56.1246H45.0423C45.8851 56.1246 46.5746 55.4358 46.5746 54.5937V53.2279C46.5746 52.3858 45.8851 51.697 45.0423 51.697H34.5342C33.6915 51.697 33.0019 52.3858 33.0019 53.2279V54.5937C33.0019 55.4358 33.6915 56.1246 34.5342 56.1246Z" fill="white"/>
<path d="M72.8816 41.6885H34.5369C33.6941 41.6885 33.0046 42.3774 33.0046 43.2194V44.5853C33.0046 45.4273 33.6941 46.1162 34.5369 46.1162H72.8816C73.7243 46.1162 74.4139 45.4273 74.4139 44.5853V43.2194C74.4139 42.3774 73.7243 41.6885 72.8816 41.6885Z" fill="white"/>
<path d="M89.6397 41.6885H79.1334C78.2906 41.6885 77.6011 42.3774 77.6011 43.2194V44.5853C77.6011 45.4273 78.2906 46.1162 79.1334 46.1162H89.6397C90.4825 46.1162 91.172 45.4273 91.172 44.5853V43.2194C91.172 42.3774 90.4825 41.6885 89.6397 41.6885Z" fill="white"/>
<path d="M63.6215 65.3048H89.6397C90.4825 65.3048 91.172 64.6159 91.172 63.7739V62.4081C91.172 61.5661 90.4825 60.8772 89.6397 60.8772H63.6215C62.7787 60.8772 62.0892 61.5661 62.0892 62.4081V63.7739C62.0892 64.6159 62.7787 65.3048 63.6215 65.3048Z" fill="white"/>
<path d="M41.3714 94.6875C43.2442 94.6766 45.0625 94.4359 46.3462 92.5999C48.866 88.9957 52.7104 85.7602 57.0212 89.4251C59.5086 91.5388 57.6392 95.8871 59.7793 97.9781C61.6708 99.8288 64.0782 99.5227 65.047 102.593C66.4703 107.109 61.9824 111.066 60.542 114.971C59.3332 118.249 62.0522 119.498 63.2729 122.051C64.2161 124.021 63.7309 126.13 62.7043 128.011C60.8945 131.33 56.8833 134.002 57.8129 138.301C58.5875 141.886 59.3094 145.084 56.141 147.803C53.9702 149.665 49.942 151.365 50.2485 154.813C50.3574 156.034 51.2019 157.073 51.4334 158.277C51.8012 160.181 50.5668 162.035 49.1333 163.341C45.8695 166.316 43.0041 169.12 40.561 172.862C39.5173 174.461 35.3359 178.071 37.0078 180.256C33.9705 176.284 30.7612 172.432 28.0013 168.254C25.7318 164.818 22.3097 159.793 24.6388 155.563C25.3641 154.246 26.7108 153.266 27.0803 151.81C27.746 149.18 25.1598 146.743 24.1996 144.506C22.6894 140.993 23.7978 136.914 26.4554 134.278C27.7136 133.031 29.079 131.66 29.2629 129.898C29.4655 127.976 28.2584 126.183 27.7119 124.409C27.2063 122.774 26.893 121.035 26.7074 119.338C26.578 118.137 26.5269 116.91 26.8096 115.738C27.3476 113.507 29.3583 112.267 30.8463 110.685C34.3893 106.915 32.5267 102.486 34.0743 98.1057C35.4636 94.1752 38.4822 94.7044 41.3714 94.6875Z" fill="#6FBB41"/>
<path d="M36.2162 184.741C35.8536 180.589 35.6833 176.428 35.6833 172.268C35.6833 161.289 36.8768 150.321 38.9011 139.54C41.5605 125.371 45.0541 111.143 50.3558 97.6904C52.1078 93.2447 54.0759 88.8795 56.3131 84.6511L57.0656 85.0486C54.8455 89.2454 52.8892 93.5818 51.1475 98.0012C45.873 111.383 42.3913 125.559 39.7371 139.697C37.7213 150.435 36.5346 161.352 36.5346 172.268C36.5346 176.404 36.7048 180.541 37.0641 184.668L36.2162 184.741Z" fill="#256C1C"/>
<path d="M68.7304 105.469C61.3431 108.075 54.2979 111.643 47.8283 116.058C46.9889 116.629 46.342 117 45.7512 117.396C45.1621 117.793 44.6224 118.213 43.955 118.915L43.3387 118.33C44.0452 117.583 44.653 117.109 45.2779 116.69C45.9027 116.272 46.5378 115.908 47.3482 115.355C53.8791 110.9 60.9906 107.297 68.4478 104.667L68.7304 105.469Z" fill="#256C1C"/>
<path d="M39.8975 134.364C47.0703 129.732 55.2034 126.597 63.631 125.211L63.7689 126.051C55.457 127.417 47.4329 130.511 40.3589 135.079L39.8975 134.364Z" fill="#256C1C"/>
<path d="M37.0325 153.835C43.7167 148.048 51.86 143.964 60.4987 142.067L60.6808 142.897C52.1834 144.763 44.1644 148.784 37.5909 154.478L37.0325 153.835Z" fill="#256C1C"/>
<path d="M43.5909 118.122C43.0767 110.204 41.1035 102.381 37.8005 95.1637L38.5752 94.8101C41.9207 102.122 43.9178 110.044 44.4405 118.068L43.5909 118.122Z" fill="#256C1C"/>
<path d="M39.828 134.281C36.4859 127.133 31.6541 120.683 25.7344 115.464L26.2979 114.826C32.3062 120.125 37.2061 126.667 40.5993 133.92L39.828 134.281Z" fill="#256C1C"/>
<path d="M36.4528 154.824C35.9965 152.643 35.1963 150.534 34.0896 148.598C32.8042 146.348 31.1068 144.332 29.3634 142.352C28.1069 140.927 26.8283 139.52 25.531 138.132L26.1524 137.552C27.4565 138.945 28.7403 140.359 30.0018 141.791C31.7538 143.781 33.4903 145.838 34.8285 148.178C35.9795 150.189 36.812 152.381 37.2853 154.651L36.4528 154.824Z" fill="#256C1C"/>
<path d="M18.3673 122.086C17.0052 122.336 15.6534 122.414 14.4684 121.259C12.1428 118.993 8.90452 117.178 6.28431 120.432C4.77415 122.31 6.73207 125.206 5.47049 127.019C4.35362 128.621 2.56596 128.733 2.28844 131.094C1.88153 134.566 5.68502 136.817 7.27179 139.45C8.60148 141.659 6.80189 142.942 6.27069 144.963C5.86038 146.523 6.50393 147.986 7.50843 149.209C9.28077 151.365 12.5616 152.748 12.4833 155.994C12.4169 158.704 12.3369 161.123 15.0115 162.657C16.8435 163.708 20.0017 164.382 20.2571 166.926C20.3473 167.826 19.8774 168.699 19.8774 169.604C19.874 171.036 21.0266 172.21 22.2474 172.958C25.0259 174.664 27.4929 176.302 29.7845 178.679C30.7635 179.694 34.2962 181.735 33.3871 183.552C35.0386 180.25 36.8331 177.012 38.2564 173.599C39.4277 170.795 41.212 166.676 38.9374 163.929C38.2291 163.074 37.1157 162.55 36.6475 161.544C35.7996 159.729 37.337 157.603 37.7252 155.848C38.333 153.092 36.9641 150.285 34.6708 148.741C33.5846 148.011 32.4047 147.205 32.0268 145.953C31.6147 144.585 32.2413 143.117 32.3928 141.756C32.5324 140.499 32.5188 139.195 32.4184 137.938C32.3468 137.05 32.2123 136.153 31.8446 135.34C31.1466 133.797 29.5172 133.177 28.2182 132.234C25.1264 129.991 25.8636 126.519 24.1338 123.556C22.581 120.897 20.4648 121.698 18.3673 122.086Z" fill="#6FBB41"/>
<path d="M33.8578 186.828C32.7307 175.765 29.7615 164.955 25.6958 154.606C21.814 144.721 17.3261 134.927 11.6532 125.957C9.77873 122.996 7.76291 120.124 5.57344 117.391L6.23743 116.858C8.44904 119.621 10.4836 122.518 12.3734 125.503C18.0871 134.537 22.5955 144.381 26.4892 154.294C30.5753 164.7 33.5667 175.584 34.7057 186.741L33.8578 186.828Z" fill="#256C1C"/>
<path d="M0.127667 133.037C5.91121 133.915 11.579 135.546 16.942 137.88C17.6009 138.167 18.1099 138.341 18.6275 138.562C19.1434 138.78 19.6609 139.047 20.2824 139.494L19.7869 140.185C19.2115 139.773 18.7722 139.547 18.2938 139.344C17.8171 139.14 17.2927 138.96 16.6015 138.659C11.3066 136.356 5.71031 134.743 -2.38419e-05 133.877L0.127667 133.037Z" fill="#256C1C"/>
<path d="M24.6696 151.427C19.2743 149.241 13.4499 148.11 7.62717 148.11C7.2458 148.11 6.86443 148.113 6.48477 148.124L6.46263 147.273C6.85081 147.265 7.23899 147.26 7.62717 147.26C13.5605 147.26 19.4905 148.411 24.9897 150.639L24.6696 151.427Z" fill="#256C1C"/>
<path d="M29.3468 165.115C23.805 161.904 17.4494 160.101 11.0444 159.924L11.0683 159.073C17.6162 159.255 24.1063 161.098 29.7724 164.379L29.3468 165.115Z" fill="#256C1C"/>
<path d="M19.2782 139.546C19.0296 137.544 18.9054 135.526 18.9054 133.509C18.9054 129.576 19.377 125.645 20.3134 121.825L21.1391 122.027C20.2197 125.78 19.7566 129.644 19.7566 133.509C19.7566 135.491 19.8775 137.474 20.1227 139.44L19.2782 139.546Z" fill="#256C1C"/>
<path d="M24.259 150.486C25.7198 144.74 28.3741 139.303 32.0073 134.617L32.6815 135.138C29.1198 139.73 26.5149 145.065 25.0848 150.695L24.259 150.486Z" fill="#256C1C"/>
<path d="M29.5325 165.096C29.5632 163.373 29.8645 161.657 30.4247 160.027C31.0751 158.133 32.054 156.394 33.05 154.707C33.7685 153.492 34.504 152.29 35.2565 151.097L35.9767 151.551C35.2276 152.735 34.4972 153.933 33.7838 155.139C32.7929 156.816 31.8463 158.505 31.23 160.303C30.6988 161.849 30.4127 163.479 30.3838 165.112L29.5325 165.096Z" fill="#256C1C"/>
<path d="M47.5097 182.928H19.7105L24.5866 210.724H42.6319L47.5097 182.928Z" fill="#FF9900"/>
<path d="M16.3025 175.102H50.9084V182.902H16.3025V175.102Z" fill="#FF9900"/>
<path d="M29.1883 185.566L29.8353 181.879L29.1883 185.566Z" fill="#E9E8E8"/>
<path d="M20.3575 186.614H46.8627L47.5097 182.928H19.7105L20.3575 186.614Z" fill="#E18700"/>
<path d="M5.21222 219.995H287.811C290.69 219.995 293.023 217.679 293.023 214.821C293.023 211.963 290.69 209.646 287.811 209.646H5.21222C2.33414 209.646 0 211.963 0 214.821C0 217.679 2.33414 219.995 5.21222 219.995Z" fill="#003654"/>
<path d="M233.901 35.3677H222.898C218.22 35.3677 214.392 39.1919 214.392 43.866C214.392 46.756 215.856 49.3199 218.079 50.857V56.8383L224.202 52.3642H233.901C238.58 52.3642 242.407 48.54 242.407 43.866C242.407 39.1919 238.58 35.3677 233.901 35.3677Z" fill="#FF9900"/>
<path d="M223.526 43.8808C223.526 44.5931 222.948 45.1704 222.235 45.1704C221.522 45.1704 220.944 44.5931 220.944 43.8808C220.944 43.1686 221.522 42.5913 222.235 42.5913C222.948 42.5913 223.526 43.1686 223.526 43.8808Z" fill="white"/>
<path d="M229.692 43.8808C229.692 44.5931 229.114 45.1704 228.402 45.1704C227.689 45.1704 227.111 44.5931 227.111 43.8808C227.111 43.1686 227.689 42.5913 228.402 42.5913C229.114 42.5913 229.692 43.1686 229.692 43.8808Z" fill="white"/>
<path d="M235.859 43.8808C235.859 44.5931 235.281 45.1704 234.568 45.1704C233.856 45.1704 233.278 44.5931 233.278 43.8808C233.278 43.1686 233.856 42.5913 234.568 42.5913C235.281 42.5913 235.859 43.1686 235.859 43.8808Z" fill="white"/>
<path d="M82.7853 113.441C84.481 110.541 88.7646 109.085 92.9035 113.919C97.0423 109.085 101.326 110.541 103.022 113.441C107.203 120.589 92.9035 129 92.9035 129C92.9035 129 78.6038 120.589 82.7853 113.441Z" fill="#FF9900"/>
<path d="M153.151 36.9232H174.426C175.55 36.9232 176.469 36.0046 176.469 34.882V22.0578C176.469 20.9352 175.55 20.0166 174.426 20.0166H153.151C152.027 20.0166 151.107 20.9352 151.107 22.0578V34.882C151.107 36.0046 152.027 36.9232 153.151 36.9232Z" fill="#FF9900"/>
<path d="M176.3 20.8059L165.196 31.5633C164.809 31.9379 164.298 32.1213 163.791 32.1213C163.285 32.1213 162.774 31.9379 162.387 31.5633L151.283 20.8059L151.757 20.3174L162.861 31.0748C163.11 31.3162 163.448 31.4408 163.791 31.4408C164.135 31.4408 164.473 31.3162 164.722 31.0748L175.826 20.3174L176.3 20.8059Z" fill="white"/>
<path d="M175.857 36.6538L166.746 29.6614L167.161 29.1218L176.272 36.1142" fill="white"/>
<path d="M151.315 36.1142L160.426 29.1218L160.841 29.6614L151.73 36.6538" fill="white"/>
<path d="M221.498 102.881H196.287C195.159 102.881 194.244 101.966 194.244 100.84V84.5908C194.244 83.4635 195.159 82.5496 196.287 82.5496H221.498C222.626 82.5496 223.541 83.4635 223.541 84.5908V100.84C223.541 101.966 222.626 102.881 221.498 102.881Z" fill="#FF9900"/>
<path d="M208.899 109.337L214.036 102.415H203.762L208.899 109.337Z" fill="#FF9900"/>
<path d="M216.603 95.3879H215.335V91.9211L215.348 91.3516L215.368 90.7287C215.158 90.9389 215.011 91.0769 214.929 91.1425L214.24 91.6957L213.629 90.9335L215.561 89.397H216.603V95.3879Z" fill="white"/>
<path d="M207.208 89.1714H203.051C201.283 89.1714 199.837 90.6164 199.837 92.3826C199.837 93.4746 200.39 94.4434 201.23 95.0243V97.2837L203.543 95.5938H207.208C208.976 95.5938 210.422 94.1487 210.422 92.3826C210.422 90.6164 208.976 89.1714 207.208 89.1714Z" fill="white"/>
<path d="M145.531 94.6967C144.845 94.7973 144.415 95.7362 144.57 96.7928C144.726 97.847 145.408 98.624 146.093 98.5234C146.779 98.4216 147.211 97.4838 147.056 96.4269C146.9 95.3716 146.218 94.5959 145.531 94.6967Z" fill="#802419"/>
<path d="M162.007 93.6125C161.315 93.6537 160.806 94.554 160.873 95.6188C160.938 96.6847 161.552 97.514 162.244 97.4717C162.936 97.4293 163.445 96.5302 163.379 95.4643C163.313 94.3995 162.699 93.5702 162.007 93.6125Z" fill="#802419"/>
<path d="M149.774 91.5113C149.774 91.5113 145.388 83.9919 140.279 91.8529C140.279 91.8529 145.248 89.1172 149.774 91.5113Z" fill="#802419"/>
<path d="M166.916 90.1454C166.916 90.1454 162.829 83.3118 158.384 90.5149C158.384 90.5149 163.196 87.8718 166.916 90.1454Z" fill="#802419"/>
<path d="M153.532 94.2946C153.532 94.2946 152.74 99.9633 153.593 100.829C154.995 102.258 154.664 102.729 153.549 103.264C153.549 103.264 159.124 102.205 156.389 100.212C153.929 98.4184 153.532 94.2946 153.532 94.2946Z" fill="#802419"/>
</svg>
