<svg width="210" height="210" viewBox="0 0 210 210" fill="none" xmlns="http://www.w3.org/2000/svg">
<mask id="mask0" mask-type="alpha" maskUnits="userSpaceOnUse" x="0" y="0" width="210" height="210">
<path fill-rule="evenodd" clip-rule="evenodd" d="M104.055 210C24.276 209.801 0 185.21 0 105V104.055C0.189 24.276 24.78 0 105 0H105.934C185.713 0.189 210 24.78 210 105V105.935C209.811 185.714 185.209 210 105 210H104.055Z" fill="#0092FF"/>
</mask>
<g mask="url(#mask0)">
<path d="M210 -3H0V209.985H210V-3Z" fill="white"/>
<path d="M176.685 138.647C176.763 138.709 176.856 138.74 176.948 138.74C177.044 138.74 177.139 138.707 177.217 138.643V137.264C177.014 137.521 176.813 137.78 176.612 138.039C176.466 138.227 176.499 138.5 176.685 138.647Z" fill="#256C1C"/>
<path d="M176.367 177.334V177.17C176.367 177.224 176.367 177.279 176.367 177.334Z" fill="#256C1C"/>
<path d="M176.785 177.685C176.878 177.685 176.973 177.654 177.051 177.589C177.108 177.543 177.165 177.497 177.222 177.451V176.338C176.986 176.531 176.752 176.723 176.517 176.914C176.435 176.981 176.386 177.073 176.367 177.169V177.333C176.379 177.401 176.407 177.466 176.452 177.523C176.536 177.63 176.66 177.685 176.785 177.685Z" fill="#256C1C"/>
<path d="M176.703 194.332C176.865 194.158 176.856 193.884 176.685 193.72C176.58 193.62 176.474 193.523 176.367 193.423V194.466L176.392 194.468C176.505 194.468 176.619 194.422 176.703 194.332Z" fill="#256C1C"/>
<path d="M180.23 81.8188C175.037 89.763 170.832 99.211 172.54 108.583C174.451 119.073 183.535 128.302 181.528 138.774C180.382 144.758 175.832 149.349 171.965 154.013C167.295 159.643 163.358 165.896 160.287 172.561C158.293 176.884 156.635 181.687 157.601 186.358C158.545 190.922 161.91 194.659 165.817 197.117C173.956 202.24 184.129 202.479 193.69 201.886C202.062 201.367 210.634 200.258 218.011 196.211C226.087 191.779 232.222 183.851 234.548 174.842C236.873 165.832 235.353 155.872 230.453 147.995C227.156 142.694 222.421 138.313 219.868 132.605C217.674 127.7 217.273 121.994 218.757 116.822C219.787 113.234 221.671 109.948 222.73 106.37C223.79 102.791 223.886 98.5864 221.607 95.6503C219.968 93.5397 217.402 92.4473 215.246 90.8857C211.368 88.0776 208.756 83.5372 208.253 78.7313C207.912 75.4849 208.49 72.2183 208.56 68.9546C208.712 61.8208 203.034 53.5539 195.851 58.9806C189.743 63.5948 184.464 75.3436 180.23 81.8188Z" fill="#6FBB41"/>
<path d="M197.61 171.678C197.914 171.431 198.217 171.182 198.52 170.933V122.232C198.42 122.314 198.297 122.357 198.173 122.357C198.054 122.357 197.934 122.317 197.833 122.237C197.592 122.048 197.55 121.695 197.739 121.452C197.998 121.117 198.259 120.783 198.52 120.45V98.6084C198.52 98.3002 198.272 98.0498 197.968 98.0498C197.663 98.0498 197.416 98.3002 197.416 98.6084V149.134C197.563 149.277 197.708 149.423 197.854 149.566C198.075 149.779 198.084 150.134 197.872 150.357C197.765 150.471 197.618 150.531 197.473 150.531C197.454 150.531 197.435 150.526 197.416 150.525V172.008C197.441 171.883 197.504 171.764 197.61 171.678Z" fill="#256C1C"/>
<path d="M198.301 172.55C198.199 172.634 198.077 172.674 197.956 172.674C197.795 172.674 197.635 172.602 197.526 172.465C197.468 172.39 197.432 172.306 197.416 172.22V193.007C197.554 193.135 197.692 193.262 197.827 193.39C198.048 193.602 198.059 193.957 197.85 194.181C197.742 194.298 197.595 194.357 197.449 194.357L197.416 194.354V211.883H198.52V172.371C198.447 172.431 198.374 172.491 198.301 172.55Z" fill="#256C1C"/>
<path d="M198.63 122.142C202.481 117.156 206.665 112.349 211.064 107.854C211.28 107.634 211.278 107.28 211.061 107.063C210.846 106.844 210.496 106.846 210.281 107.066C206.146 111.29 202.201 115.787 198.543 120.45V122.232C198.574 122.206 198.604 122.175 198.63 122.142Z" fill="#256C1C"/>
<path d="M215.608 157.132C215.828 156.917 215.835 156.564 215.623 156.341C215.412 156.118 215.063 156.112 214.843 156.326C209.642 161.41 204.163 166.319 198.543 170.933V172.371C204.43 167.572 210.171 162.446 215.608 157.132Z" fill="#256C1C"/>
<path d="M188.823 139.467C188.634 139.225 188.287 139.184 188.048 139.375C187.81 139.566 187.769 139.917 187.957 140.161C190.761 143.766 193.844 147.201 197.117 150.375C197.208 150.465 197.323 150.513 197.44 150.525V149.134C194.369 146.117 191.47 142.868 188.823 139.467Z" fill="#256C1C"/>
<path d="M187.647 185.922C183.884 183.522 179.992 181.042 176.853 177.815C176.64 177.595 176.29 177.593 176.073 177.81C175.856 178.027 175.855 178.381 176.068 178.601C179.298 181.92 183.244 184.436 187.06 186.869C190.518 189.073 194.092 191.352 197.082 194.206C197.181 194.3 197.303 194.346 197.428 194.355V193.008C194.45 190.26 190.995 188.056 187.647 185.922Z" fill="#256C1C"/>
<path d="M195.669 150.783C195.88 150.56 195.872 150.205 195.651 149.992C195.505 149.849 195.36 149.703 195.213 149.56V150.951C195.232 150.952 195.251 150.956 195.27 150.956C195.415 150.956 195.562 150.897 195.669 150.783Z" fill="#9E9F8A"/>
<path d="M119.081 173.745L115.548 195.805H133.895V181.912C129.199 178.709 124.269 175.905 119.081 173.745Z" fill="#FECBA5"/>
<path d="M133.907 169.221L120.922 162.326L119.093 173.745C124.281 175.905 129.211 178.709 133.907 181.912V169.221Z" fill="#E58C6C"/>
<path d="M149.92 195.805H155.153C154.972 192.22 154.835 188.148 154.734 183.824C152.953 183.33 151.198 182.74 149.482 182.055C149.601 187.32 149.745 192.081 149.92 195.805Z" fill="#BDBDBD"/>
<path d="M188.034 167.322C188.034 167.322 187.966 171.264 187.997 173.152C190.429 173.901 193.946 174.607 198.133 174.34C200.977 174.16 203.963 172.761 206.646 171.015C206.403 168.216 206.007 166.297 206.007 166.297L188.034 167.322Z" fill="#E58C6C"/>
<path d="M154.747 128.366L154.885 128.246C152.933 128.574 150.929 128.641 148.951 128.453C148.955 130.781 149.023 160.606 149.509 182.055C151.225 182.74 152.98 183.33 154.762 183.824C154.208 159.947 154.747 128.366 154.747 128.366Z" fill="#D7D7D7"/>
<path d="M144.418 116.086C142.881 118.542 132.863 118.661 128.442 125.754C124.019 132.848 115.548 166.122 115.548 166.122L126.809 169.221V195.805H149.931C149.014 176.279 148.936 128.305 148.936 128.305L144.418 116.086Z" fill="#0092FF"/>
<path d="M154.596 176.039C154.537 171.831 154.506 167.523 154.493 163.3C156.255 164.274 157.914 165.449 159.63 166.514C163.089 168.661 166.795 170.365 170.489 172.063C175.461 174.349 180.433 176.634 185.482 178.738C186.223 179.047 187.094 179.311 188.026 179.537V171.005C198.184 169.953 208.136 165.077 208.136 165.077C208.136 165.077 201.582 130.859 195.336 122.711C189.677 115.328 170.96 113.395 166.221 110.697L162.435 121.649L154.72 128.366C154.72 128.366 153.969 172.424 155.155 195.805H188.026V193.84C178.424 190.138 169.693 184.248 159.638 178.908C158.446 178.275 156.493 177.146 154.596 176.039Z" fill="#0092FF"/>
<path d="M165.231 109.825C164.004 107.507 163.577 97.6733 163.435 92.3212C163.235 97.4297 161.69 106.892 153.48 112.226C150.897 113.904 147.806 114.353 144.924 114.25C144.802 115.086 144.635 115.73 144.411 116.086L148.929 128.305V128.453C150.907 128.641 152.91 128.574 154.863 128.246L162.439 121.649L166.225 110.697C165.733 110.416 165.392 110.129 165.231 109.825Z" fill="#FECBA5"/>
<path d="M164.532 107.37C164.532 107.37 160.939 114.023 158.003 120.334C156.606 123.34 155.358 126.269 154.718 128.366L161.221 123.491L164.532 107.37Z" fill="#E58C6C"/>
<path d="M153.474 112.226C161.684 106.892 163.229 97.4297 163.428 92.3212C163.373 90.2243 163.359 88.8141 163.359 88.8141L144.809 97.6499C144.809 97.6499 145.637 109.324 144.918 114.25C147.799 114.353 150.891 113.904 153.474 112.226Z" fill="#E58C6C"/>
<path d="M144.878 114.5C144.878 114.5 147.079 119.446 148.233 123.934C148.644 125.53 148.922 127.068 148.922 128.305L144.809 118.918L144.878 114.5Z" fill="#E58C6C"/>
<path d="M164.123 99.7329C168.852 95.8943 173.002 91.0017 174.711 85.1076C176.42 79.212 175.012 71.6871 170.543 67.5386C171.831 64.6365 170.451 61.0671 168.061 59.0071C165.669 56.9471 162.499 56.0995 159.409 55.5499C154.52 54.6805 149.479 54.1602 144.526 54.4905C145.186 53.6481 144.773 52.3024 143.914 51.6699C143.055 51.0374 141.921 50.9564 140.862 51.0164C137.454 51.2094 134.178 52.6313 131.454 54.7181C128.731 56.805 126.566 59.5274 124.766 62.4689C122.933 62.2418 121.1 63.134 119.765 64.4281C118.429 65.7222 117.509 67.3863 116.636 69.0368C116.135 69.9811 115.633 70.9644 115.556 72.0332C115.479 73.1019 115.937 74.2859 116.9 74.7249C118.397 75.4062 119.98 74.0506 121.077 72.8145C119.388 75.1965 119.182 78.5695 120.567 81.1451C121.57 83.0094 123.278 84.3852 125.09 85.4488C126.201 86.1023 127.707 86.6237 128.675 85.7666C131.602 87.2924 134.233 88.5224 137.161 90.0441C141.019 92.0501 144.899 94.0616 149.02 95.4251C151.172 96.1364 153.377 96.6661 155.58 97.1959C158.432 97.881 161.27 99.0478 164.123 99.7329Z" fill="#4E2F20"/>
<path d="M164.982 81.0308C165.655 88.2885 163.732 95.747 159.615 101.856C157.149 105.516 153.829 108.752 149.7 110.539C145.57 112.326 140.57 112.511 136.597 110.421C133.288 108.681 130.952 105.546 129.56 102.17C128.17 98.7932 127.628 95.154 127.17 91.5479C126.307 84.7759 125.691 77.975 125.323 71.1614C126.481 69.5949 127.471 68.0606 129.05 66.8861C135.326 62.2173 144.231 61.0756 151.556 64.0012C158.878 66.9267 164.276 73.4186 164.982 81.0308Z" fill="#FECBA5"/>
<path d="M123.402 70.7072C125.819 73.3113 129.109 74.9538 132.512 75.8873C135.916 76.8208 139.459 77.0916 142.98 77.2967C147.576 77.565 152.335 77.7026 156.612 75.9755C156.61 79.2491 157.262 82.6378 159.183 85.2699C161.103 87.9005 164.152 89.7565 167.378 89.8487C166.873 81.4395 164.43 74.0607 159.663 67.1609C158.36 65.2752 156.891 63.4637 155.023 62.1555C152.56 60.431 149.566 59.6892 146.615 59.181C144.902 58.8861 143.159 58.6579 141.429 58.8306C139.493 59.0238 137.643 59.7114 135.818 60.3932C133.42 61.2891 130.986 62.2035 128.919 63.7299C126.542 65.4857 125.118 68.2855 123.402 70.7072Z" fill="#4E2F20"/>
<path d="M172.893 73.4837C172.453 73.3314 171.972 73.4056 171.509 73.3729C170.063 73.2711 168.793 71.9731 168.704 70.5059C168.637 69.3955 169.055 67.9968 168.15 67.3661C167.819 67.1344 167.396 67.0987 166.995 67.0558C165.141 66.8571 163.127 66.1967 162.23 64.5394C161.773 63.6943 161.67 62.6932 161.244 61.8315C160.351 60.0243 158.281 59.2079 156.832 57.8198C155.971 56.994 155.346 55.97 154.926 54.8495C151.719 54.4611 148.48 54.2812 145.273 54.4452C145.338 54.8091 145.415 55.1713 145.506 55.5313C146.274 58.567 148.142 61.4822 150.991 62.6956C151.69 62.9932 152.433 63.1847 153.099 63.5527C154.624 64.397 155.59 66.0861 157.172 66.8134C159.646 67.9504 163.104 66.5205 164.95 68.5406C166.369 70.0912 165.775 72.6411 166.669 74.5515C167 75.2586 167.526 75.8543 167.883 76.548C168.799 78.3273 168.495 80.4626 168.426 82.47C168.305 86.0183 169.062 89.6726 170.933 92.6541C172.608 90.3303 173.939 87.7822 174.732 85.0153C175.12 83.6601 175.343 82.2182 175.403 80.7515C174.909 79.3069 174.556 77.8072 174.346 76.2975C174.19 75.1898 173.936 73.8451 172.893 73.4837Z" fill="#543425"/>
<path d="M151.046 81.5137C149.516 80.812 147.776 80.4694 146.14 80.8547C145.731 80.951 145.313 81.1037 145.035 81.4229C144.757 81.7407 144.669 82.2635 144.939 82.5896C145.095 82.7795 145.336 82.8703 145.568 82.9473C147.379 83.5569 149.294 83.8513 151.202 83.8141C151.556 83.8073 151.931 83.7825 152.22 83.5734C153.293 82.7946 151.643 81.7889 151.046 81.5137Z" fill="#802419"/>
<path d="M129.9 81.5137C131.43 80.812 133.171 80.4694 134.807 80.8547C135.215 80.951 135.633 81.1037 135.911 81.4229C136.189 81.7407 136.277 82.2635 136.007 82.5896C135.85 82.7795 135.61 82.8703 135.378 82.9473C133.567 83.5569 131.652 83.8513 129.744 83.8141C129.39 83.8073 129.014 83.7825 128.727 83.5734C127.654 82.7946 129.303 81.7889 129.9 81.5137Z" fill="#802419"/>
<path d="M149.92 88.2706C149.92 89.385 149.213 90.289 148.342 90.289C147.471 90.289 146.764 89.385 146.764 88.2706C146.764 87.1561 147.471 86.2522 148.342 86.2522C149.213 86.2522 149.92 87.1561 149.92 88.2706Z" fill="#802419"/>
<path d="M134.774 88.2706C134.774 89.385 134.068 90.289 133.198 90.289C132.325 90.289 131.62 89.385 131.62 88.2706C131.62 87.1561 132.325 86.2522 133.198 86.2522C134.068 86.2522 134.774 87.1561 134.774 88.2706Z" fill="#802419"/>
<path d="M141.065 100.992C142.234 101.045 143.387 100.66 144.422 100.107C145.582 99.488 146.624 98.646 147.491 97.6498C143.789 98.9583 137.962 98.7643 135.895 98.6446C136.728 99.4343 137.768 100.031 138.837 100.454C139.551 100.736 140.298 100.957 141.065 100.992Z" fill="white"/>
<path d="M142.28 104.196C140.967 104.24 139.663 104.528 138.446 105.031C139.444 106.005 140.681 106.615 142.178 106.362C143.449 106.147 144.472 105.445 145.293 104.522C144.31 104.276 143.293 104.163 142.28 104.196Z" fill="#FF5F63"/>
<path d="M147.488 97.6499C146.621 98.646 145.58 99.488 144.42 100.107C143.385 100.66 142.232 101.046 141.062 100.992C140.296 100.957 139.548 100.736 138.835 100.454C137.766 100.031 136.725 99.4344 135.892 98.6446C135.411 98.6157 135.133 98.5924 135.133 98.5924C135.133 98.5924 136.157 102.783 138.46 105.031C139.677 104.528 140.981 104.24 142.294 104.196C143.307 104.163 144.323 104.276 145.307 104.522C147.685 101.845 148.351 97.2977 148.351 97.2977C148.08 97.4256 147.791 97.5426 147.488 97.6499Z" fill="#802419"/>
<path d="M141.296 133.368C141.296 133.368 145.415 130.779 148.926 133.022V128.305L145.111 126.617L141.296 133.368Z" fill="#0064AF"/>
<path d="M154.718 128.366L154.651 133.184C154.651 133.184 158.321 131.631 166.219 133.369L165.735 121.37L160.779 125.709L154.718 128.366Z" fill="#0064AF"/>
<path d="M174.532 149.245H164.451C162.425 149.245 160.782 147.578 160.782 145.523H178.202C178.202 147.578 176.559 149.245 174.532 149.245Z" fill="#0064AF"/>
<path d="M182.687 135.721C182.66 135.419 188.043 171.005 188.043 171.005L187.991 177.318L182.687 175.192C182.687 175.192 185.363 166.084 182.687 135.721Z" fill="#0064AF"/>
<path d="M138.446 92.3212V92.3404C138.446 93.6585 139.499 94.7276 140.799 94.7276C142.098 94.7276 143.151 93.6585 143.151 92.3404V92.3212H138.446Z" fill="#802419"/>
<path d="M160.351 97.1573C162.531 97.2811 164.771 96.6702 166.502 95.3191C168.231 93.9694 169.408 91.8616 169.503 89.6506C169.554 88.4302 169.222 87.0956 168.255 86.3691C167.517 85.8133 166.536 85.706 165.62 85.7871C165.606 85.7885 165.594 85.7899 165.582 85.7913C163.824 85.9564 162.389 87.2868 162.026 89.0397L160.351 97.1573Z" fill="#FECBA5"/>
<path d="M165.104 89.3603C165.207 89.4236 165.307 89.5007 165.404 89.5942C165.796 89.9781 166.03 90.5133 166.045 91.065C166.062 91.6167 165.858 92.1657 165.489 92.5716C165.447 92.617 165.39 92.639 165.335 92.6376C165.286 92.6363 165.238 92.6184 165.199 92.5826C165.116 92.5042 165.111 92.3735 165.188 92.2882C165.486 91.9635 165.649 91.5218 165.636 91.0774C165.623 90.633 165.435 90.2023 165.12 89.8942C165.004 89.7827 164.829 89.6479 164.625 89.6135C163.865 90.0854 163.256 90.8174 162.933 91.6566C162.902 91.7406 162.822 91.7915 162.738 91.7901C162.715 91.7887 162.692 91.7846 162.669 91.7763C162.563 91.7337 162.512 91.614 162.552 91.5067C162.936 90.5037 163.693 89.6383 164.629 89.1319C165.565 88.6256 166.695 88.4688 167.73 88.7013C167.84 88.7261 167.911 88.8375 167.886 88.9489C167.862 89.0618 167.752 89.1319 167.641 89.1072C166.802 88.9173 165.893 89.0122 165.104 89.3603Z" fill="#E58C6C"/>
<path d="M161.638 93.7258C161.693 93.6267 161.82 93.5923 161.917 93.6487C163.023 94.2913 164.412 93.9047 165.343 93.3282C165.938 92.9608 166.721 92.3183 167.074 91.3456C167.113 91.2369 167.231 91.1818 167.337 91.2217C167.443 91.2616 167.497 91.38 167.459 91.4887C167.065 92.5742 166.207 93.2814 165.556 93.6831C164.891 94.0945 164.012 94.4151 163.131 94.3958C162.647 94.3848 162.161 94.2706 161.714 94.0092C161.616 93.9528 161.581 93.8262 161.638 93.7258Z" fill="#E58C6C"/>
<path d="M126.824 169.221C126.824 169.221 128.915 141.204 130.662 136.995C130.662 136.995 124.175 164.558 124.197 168.498L126.824 169.221Z" fill="#0064AF"/>
<path d="M185.508 178.738C180.459 176.634 175.487 174.349 170.515 172.063C166.821 170.365 163.115 168.661 159.656 166.514C157.94 165.45 156.281 164.275 154.519 163.3C154.532 167.523 154.563 171.831 154.622 176.04C156.52 177.146 158.472 178.275 159.664 178.908C169.719 184.248 178.45 190.138 188.052 193.84V179.537C187.12 179.311 186.249 179.047 185.508 178.738Z" fill="#0064AF"/>
<path d="M143.491 159.03C141.167 159.093 139.074 160.56 136.837 161.201C132.789 162.363 133.243 162.797 129.035 162.775C129.503 164.755 136.268 168.838 139.983 170.522C141.705 171.304 143.458 172.094 145.329 172.348C146.654 172.528 148.045 172.443 149.274 172.976C149.289 172.982 149.312 172.993 149.332 173.003C149.268 169.104 149.214 165.104 149.169 161.178C147.216 160.597 145.252 160.049 143.491 159.03Z" fill="#0064AF"/>
<path d="M152.551 162.341C151.45 161.872 150.302 161.519 149.15 161.177C149.195 165.104 149.249 169.104 149.313 173.003C149.888 173.277 152.198 174.639 154.601 176.04C154.543 171.831 154.511 167.523 154.498 163.3C153.864 162.95 153.219 162.625 152.551 162.341Z" fill="#0064AF" fill-opacity="0.5"/>
<path d="M164.532 107.37L154.718 128.366C154.718 128.366 159.219 127.799 165.463 132.221C164.747 127.121 166.84 111.011 166.84 111.011L164.532 107.37Z" fill="#0092FF"/>
<path d="M144.882 114.5L148.926 128.305C148.926 128.305 143.413 129.684 141.296 133.369C141.469 125.152 142.768 117.271 142.768 117.271L144.882 114.5Z" fill="#0092FF"/>
<path d="M187.989 173.765C187.989 173.765 190.319 179.416 191.585 178.645C192.852 177.875 187.989 173.765 187.989 173.765Z" fill="#E9876F"/>
<path d="M206.652 171.015C203.969 172.761 200.983 174.16 198.14 174.34C193.952 174.607 190.436 173.901 188.003 173.152C188.007 173.458 188.015 173.713 188.026 173.885C187.732 173.441 187.151 173.008 186.348 172.582C185.108 172.105 184.41 171.718 184.376 171.699C179.712 169.883 163.453 166.016 158.53 162.054C157.627 161.326 156.542 160.813 155.825 159.897C154.919 158.735 154.554 157.241 153.855 155.941C153.01 154.368 151.655 153.086 150.05 152.338C148.363 151.552 146.16 151.099 145.563 149.316C145.282 148.477 145.324 147.325 144.511 146.999C143.659 146.655 142.875 147.658 142.62 148.551C142.086 150.421 142.326 152.504 143.271 154.198C139.94 153.497 136.617 153.206 133.248 153.687C130.368 154.1 129.485 155.85 129.05 156.101C128.779 156.256 127.918 156.296 127.64 156.438C126.858 156.838 125.823 158.799 128.113 159.196C127.653 160.278 128.707 161.091 129.335 161.762C128.843 162.201 128.93 163.051 129.342 163.567C129.756 164.085 130.393 164.352 131.003 164.598C132.856 165.348 134.709 166.098 136.563 166.847C138.549 167.649 140.535 168.453 142.521 169.257C144.334 169.99 146.203 170.734 148.154 170.715C149.746 170.7 151.347 170.174 152.913 170.293C156.178 173.234 193.702 196.585 201.672 190.219C207.008 185.958 207.145 176.682 206.652 171.015Z" fill="#FECBA5"/>
<path d="M137.046 163.986C137.03 163.986 137.015 163.981 137 163.975C134.547 162.837 131.947 162.102 129.267 161.792C129.206 161.786 129.161 161.729 129.168 161.666C129.175 161.604 129.233 161.56 129.293 161.565C131.995 161.878 134.62 162.618 137.093 163.767C137.149 163.793 137.175 163.86 137.149 163.918C137.13 163.961 137.089 163.986 137.046 163.986Z" fill="#E9876F"/>
<path d="M138.256 160.239L138.227 160.235C136.137 159.679 133.977 159.105 131.781 159.224C131.547 159.236 131.314 159.257 131.079 159.277C130.843 159.299 130.607 159.32 130.37 159.332C129.633 159.372 128.911 159.337 128.114 159.288C128.051 159.286 128.004 159.231 128.008 159.167C128.011 159.105 128.065 159.055 128.126 159.06C128.918 159.108 129.632 159.144 130.359 159.104C130.592 159.092 130.827 159.071 131.06 159.05C131.296 159.03 131.532 159.009 131.768 158.995C134 158.874 136.177 159.455 138.284 160.015C138.345 160.03 138.38 160.093 138.365 160.154C138.352 160.206 138.306 160.239 138.256 160.239Z" fill="#E9876F"/>
<path d="M128.916 156.274C128.867 156.274 128.822 156.242 128.808 156.193C128.789 156.132 128.823 156.069 128.883 156.05C132.091 155.063 135.574 155.578 138.646 156.033C138.709 156.041 138.751 156.099 138.743 156.163C138.733 156.224 138.673 156.266 138.614 156.259C135.565 155.808 132.109 155.297 128.948 156.268L128.916 156.274Z" fill="#E9876F"/>
<path d="M8.48084 123.858C8.55668 123.919 8.64675 123.948 8.73615 123.948C8.82962 123.948 8.922 123.916 8.99688 123.854V122.515C8.80032 122.766 8.60443 123.016 8.41003 123.268C8.26894 123.451 8.30055 123.715 8.48084 123.858Z" fill="#256C1C"/>
<path d="M8.49887 144.993C8.65718 144.825 8.65135 144.558 8.48571 144.398C8.37501 144.291 8.26635 144.181 8.1562 144.072V145.118C8.17058 145.119 8.18482 145.122 8.1992 145.122C8.3084 145.122 8.41747 145.078 8.49887 144.993Z" fill="#256C1C"/>
<path d="M8.15622 161.423V161.265C8.15619 161.317 8.15619 161.371 8.15622 161.423Z" fill="#256C1C"/>
<path d="M-4.78032 93.4819C-8.68373 99.4517 -11.8444 106.553 -10.5603 113.597C-9.12326 121.481 -2.29697 128.416 -3.80454 136.286C-4.66583 140.784 -8.08548 144.233 -10.9929 147.74C-14.5018 151.971 -17.4608 156.671 -19.7694 161.679C-21.2673 164.929 -22.5134 168.538 -21.7872 172.049C-21.0778 175.479 -18.5493 178.287 -15.6133 180.135C-9.49592 183.985 -1.8508 184.165 5.33513 183.719C11.6267 183.33 18.0699 182.496 23.6138 179.454C29.6835 176.123 34.2945 170.165 36.0419 163.393C37.7893 156.623 36.648 149.137 32.9655 143.216C30.487 139.233 26.9288 135.941 25.0101 131.651C23.3612 127.964 23.0591 123.675 24.1744 119.788C24.9482 117.093 26.3649 114.622 27.161 111.934C27.957 109.242 28.0298 106.083 26.3166 103.876C25.085 102.291 23.1566 101.47 21.5365 100.296C18.6214 98.1845 16.6583 94.7738 16.2801 91.1608C16.0245 88.7214 16.4582 86.2668 16.5107 83.8137C16.6254 78.4519 12.358 72.2386 6.95949 76.3166C2.36911 79.7852 -1.59874 88.6154 -4.78032 93.4819Z" fill="#6FBB41"/>
<path d="M8.30217 161.016C8.53021 160.83 8.75784 160.643 8.98534 160.457V123.854C8.91046 123.916 8.81808 123.948 8.72461 123.948C8.63521 123.948 8.54513 123.919 8.4693 123.858C8.28901 123.715 8.2574 123.451 8.39848 123.268C8.59288 123.016 8.78877 122.766 8.98534 122.515V106.1C8.98534 105.869 8.79976 105.68 8.57077 105.68C8.34178 105.68 8.1562 105.869 8.1562 106.1V144.072C8.26635 144.181 8.37502 144.291 8.48571 144.398C8.65135 144.558 8.65719 144.825 8.49887 144.993C8.41748 145.078 8.30841 145.122 8.1992 145.122C8.18482 145.122 8.17058 145.119 8.1562 145.118V161.265C8.17411 161.17 8.22227 161.081 8.30217 161.016Z" fill="#256C1C"/>
<path d="M8.82092 161.672C8.74441 161.734 8.65271 161.764 8.56182 161.764C8.44027 161.764 8.31994 161.711 8.23814 161.606C8.19432 161.551 8.16855 161.488 8.1562 161.423V177.048C8.25944 177.142 8.36294 177.237 8.46455 177.334C8.63141 177.493 8.63928 177.76 8.48232 177.928C8.40079 178.016 8.29077 178.062 8.18035 178.062L8.1562 178.059V191.233H8.98534V161.537C8.93054 161.581 8.87573 161.627 8.82092 161.672Z" fill="#256C1C"/>
<path d="M9.05061 123.787C11.9447 120.04 15.089 116.427 18.3959 113.048C18.5574 112.884 18.5564 112.617 18.3939 112.454C18.2314 112.29 17.9689 112.291 17.8076 112.456C14.7001 115.631 11.7354 119.011 8.98468 122.515V123.854C9.00856 123.835 9.0308 123.813 9.05061 123.787Z" fill="#256C1C"/>
<path d="M1.67206 136.808C1.53016 136.626 1.2697 136.595 1.08968 136.738C0.910073 136.882 0.879278 137.146 1.02118 137.329C3.12916 140.038 5.44524 142.621 7.90499 145.005C7.97404 145.073 8.06018 145.108 8.14836 145.118V144.072C5.8396 141.805 3.66134 139.364 1.67206 136.808Z" fill="#256C1C"/>
<path d="M21.8117 150.083C21.9763 149.922 21.9812 149.657 21.8224 149.489C21.6635 149.323 21.4012 149.317 21.2362 149.478C17.3275 153.299 13.2092 156.989 8.98468 160.457V161.538C13.4102 157.93 17.725 154.078 21.8117 150.083Z" fill="#256C1C"/>
<path d="M8.56181 161.764C8.6527 161.764 8.74441 161.734 8.82092 161.672C8.87573 161.627 8.93053 161.581 8.98534 161.537V160.457C8.75784 160.643 8.53021 160.83 8.30217 161.016C8.22226 161.081 8.1741 161.17 8.1562 161.265V161.423C8.16854 161.488 8.19432 161.551 8.23813 161.606C8.31994 161.711 8.44026 161.764 8.56181 161.764Z" fill="#256C1C"/>
<path d="M0.806449 171.72C-2.02188 169.918 -4.94652 168.054 -7.30588 165.628C-7.46663 165.463 -7.72927 165.462 -7.89206 165.625C-8.05512 165.788 -8.05688 166.055 -7.89599 166.22C-5.46921 168.714 -2.50306 170.604 0.365288 172.433C2.96367 174.09 5.65065 175.802 7.89781 177.947C7.97148 178.018 8.064 178.053 8.1576 178.059V177.048C5.91938 174.982 3.32249 173.325 0.806449 171.72Z" fill="#256C1C"/>
<path d="M8.48232 177.928C8.63927 177.76 8.6314 177.493 8.46454 177.334C8.36294 177.237 8.25943 177.142 8.1562 177.047V178.059L8.18034 178.061C8.29077 178.061 8.40079 178.016 8.48232 177.928Z" fill="#256C1C"/>
<path d="M78.7524 195.13H94.1589C90.0723 190.274 87.3954 177.554 85.8843 167.91C82.0906 167.017 78.4195 165.591 75.0204 163.666L78.7524 195.13Z" fill="#FECBA5"/>
<path d="M74.1256 155.933L75.0427 163.666C78.4417 165.591 82.1129 167.017 85.9065 167.91C84.8504 161.171 84.3633 155.933 84.3633 155.933H74.1256Z" fill="#E58C6C"/>
<path d="M92.3887 154.51C87.9781 146.381 83.7518 127.38 79.2522 123.015C76.7059 120.544 70.8156 118.679 66.1969 117.031C63.3958 118.667 60.3255 119.797 57.1255 120.264C50.8357 121.183 44.2802 119.626 39.0472 115.969C37.861 115.141 36.7525 114.211 35.6861 113.23C30.1787 116.837 19.8813 117.398 13.8446 130.027C10.4564 137.115 13.3456 148.849 13.8638 163.52C14.4374 179.758 13.25 195.04 13.25 195.04L81.9709 195.201C81.9709 195.201 81.3771 187.704 80.1439 178.722C78.9022 169.678 77.8594 160.574 77.8594 160.574C77.8594 160.574 85.9257 161.543 92.3887 154.51Z" fill="#FFAF3F"/>
<path d="M16.4815 171.45C17.0663 172.506 17.4206 173.672 17.798 174.821C18.9891 178.447 20.4514 181.987 23.3441 184.433C26.2829 186.919 30.4377 187.388 34.2323 186.885C42.5782 185.78 49.6549 179.512 56.6615 174.781C60.6698 172.076 63.9907 168.466 67.2716 164.893C68.1696 163.913 69.0679 162.935 69.9661 161.957C70.1352 161.773 70.3146 161.581 70.55 161.503C70.797 161.419 71.0654 161.473 71.3226 161.511C72.358 161.669 73.7162 161.345 74.7189 161.038L74.4046 158.388L74.6436 147.753C68.8761 147.571 63.5864 150.833 58.9395 154.302C57.5175 155.364 56.1065 156.463 54.52 157.249C52.4108 158.294 50.0721 158.747 47.7655 159.189C45.0008 159.717 42.3262 160.508 39.5615 161.038C38.7196 155.038 37.8712 149.007 36.1071 143.216C34.3431 137.425 31.6077 131.835 27.4281 127.503C22.4162 131.006 17.3335 134.436 12.2159 137.812C11.9704 144.605 13.4996 153.392 13.8839 163.609C13.9524 165.432 13.9985 167.242 14.0269 169.019C15.0903 169.494 15.9112 170.421 16.4815 171.45Z" fill="#FF9D21"/>
<path d="M51.4324 100.869C43.6347 102.668 34.7948 99.4255 30.3775 92.6645C25.9603 85.9021 26.6433 76.0023 32.3195 70.2889C32.5109 67.1774 34.1844 64.5308 36.5543 62.5454C41.1922 58.6602 47.1033 56.3665 53.1136 56.12C54.6244 56.0581 56.1558 56.1193 57.6282 55.7707C59.2361 55.3898 60.694 54.5387 62.2526 53.9859C65.7625 52.7413 70.1075 53.2687 72.5401 56.1207C72.8716 56.5094 73.171 56.9407 73.5944 57.2232C74.4613 57.8016 75.5933 57.6171 76.631 57.6129C78.9266 57.6039 81.2465 58.6839 82.5764 60.5814C83.9063 62.4789 84.1221 65.1744 82.9426 67.1717C82.6957 67.5897 82.3871 67.9937 82.3144 68.4754C82.1932 69.2784 82.7491 70.0002 83.1461 70.7059C84.7103 73.4871 83.8895 77.1723 81.884 79.6461C79.8787 82.1185 76.9188 83.5852 73.949 84.6721C70.6582 85.876 67.697 88.7048 64.7731 90.653C60.1929 93.7047 55.1155 96.7536 51.4324 100.869Z" fill="#222629"/>
<path d="M57.0964 120.267C60.2952 119.792 63.3924 118.674 66.1897 117.031C62.644 115.775 59.7964 114.625 59.6544 113.368C59.3272 110.474 63.1409 103.49 63.1409 103.49L46.622 93.069C46.622 93.069 42.1147 106.218 37.5415 111.585C36.9937 112.228 36.3335 112.777 35.5853 113.269C36.654 114.248 37.7647 115.174 38.9528 116C44.194 119.645 50.8087 121.2 57.0964 120.267Z" fill="#FECBA5"/>
<path d="M54.2215 112.799C56.73 113.737 58.7499 114.201 60.3469 114.392C59.9349 114.056 59.687 113.716 59.6477 113.368C59.3205 110.474 63.1342 103.49 63.1342 103.49L46.6153 93.069C46.6153 93.069 45.6678 95.8317 44.2014 99.3415C45.7192 103.847 48.8575 110.79 54.2215 112.799Z" fill="#E58C6C"/>
<path d="M76.1284 68.1205C76.8513 72.8625 77.5742 77.6044 78.2971 82.347C79.3182 89.0447 80.3222 96.0066 78.3088 102.477C77.355 105.543 75.5639 108.568 72.6227 109.98C70.8992 110.808 68.9236 111.012 67.0015 110.946C59.3624 110.687 52.2813 106.337 47.4607 100.525C42.6401 94.7146 39.8277 87.5588 37.8192 80.3465C36.7258 76.4198 37.4231 72.0875 39.5756 68.6144C41.5507 65.4272 45.0579 63.3629 48.7381 62.3802C52.4184 61.3976 56.2952 61.3877 60.1111 61.532C63.0377 61.6428 65.9988 61.8472 68.7809 62.7491C71.5631 63.6507 75.6967 65.2887 76.1284 68.1205Z" fill="#FECBA5"/>
<path d="M77.4388 66.7266C69.0072 70.3564 59.7766 72.0562 50.6252 71.6877C48.066 71.5845 46.057 73.9012 46.4937 76.4607C46.5792 76.9604 46.6979 77.4557 46.8381 77.9332C47.4726 80.0919 48.5552 82.113 48.9834 84.324C49.5239 87.1157 48.9361 90.1343 47.2981 92.443C45.6605 94.7517 45.7643 99.4159 42.9625 99.5342C41.1042 94.0019 36.0756 85.7907 34.9529 80.0589C34.4892 77.691 34.1531 75.2563 34.5062 72.8696C35.357 67.1208 40.2155 62.5764 45.6715 60.7948C47.5369 60.1855 49.4772 59.845 51.4206 59.5892C57.3205 58.8128 63.3728 58.8105 69.1588 60.214C72.681 61.0684 76.0029 63.3548 77.4388 66.7266Z" fill="#222629"/>
<path d="M77.9045 160.851C77.8786 160.632 77.865 160.515 77.865 160.515C77.865 160.515 78.9603 160.642 80.6632 160.453C77.3003 149.815 72.3362 130.069 72.3362 130.069C72.6174 136.46 76.2465 153.387 77.9045 160.851Z" fill="#FF9D21"/>
<path d="M60.692 164.545C60.7335 164.608 60.7749 164.673 60.8163 164.736C62.4314 163.246 64.1087 161.826 65.8423 160.479C66.6639 159.841 67.5476 159.293 68.4604 158.798L68.4781 158.788C69.0302 158.486 69.6637 158.392 70.2812 158.504C71.6541 158.753 74.2248 158.428 74.7472 158.34C75.3255 158.242 75.8854 158.056 76.4364 157.854C78.2747 157.179 80.0194 156.071 81.6825 155.028C81.6795 155.14 82.5262 155.653 82.7756 156.037C83.0248 156.419 83.1903 156.864 83.5068 157.191C83.8535 157.55 84.3515 157.73 84.8458 157.767C85.3495 157.806 85.8537 157.707 86.3424 157.579C87.2559 157.34 88.1379 156.989 88.9711 156.539C89.42 156.297 89.9003 155.991 90.0656 155.499C90.2426 154.972 89.9595 154.403 89.7014 153.912C90.2176 153.85 90.6494 153.498 91.0388 153.149C91.2454 152.964 91.4521 152.77 91.5936 152.531C91.7351 152.29 91.805 151.992 91.7183 151.726C92.2774 151.447 92.8292 150.918 92.7468 150.292C92.6949 149.895 92.4016 149.581 92.1205 149.3C91.1556 148.337 90.2258 147.399 89.1916 146.513C92.7719 144.907 96.2886 143.156 99.7302 141.264C100.66 140.752 101.68 140.107 101.831 139.019C101.855 138.843 101.84 138.66 101.768 138.497C101.459 137.802 100.497 137.981 99.8207 138.252C91.2162 141.71 82.5151 144.92 73.7314 147.878C71.7987 148.529 69.8573 149.17 68.0059 150.028C63.4075 152.164 59.5195 155.572 55.7005 158.934L60.692 164.545Z" fill="#FECBA5"/>
<path d="M91.6702 151.648C91.0195 150.465 89.9954 149.544 88.938 148.717C87.7328 147.776 86.458 146.926 85.1277 146.177C85.7078 145.99 86.3114 146.254 86.8393 146.561C88.9549 147.793 90.5173 149.467 91.6702 151.648Z" fill="#E58C6C"/>
<path d="M89.6149 153.826C89.0049 152.959 88.1971 152.26 87.3979 151.569C86.0169 150.376 84.6004 149.161 82.9074 148.502C83.6298 148.439 84.2785 148.882 84.8869 149.281C86.7488 150.506 88.431 151.923 89.6149 153.826Z" fill="#E58C6C"/>
<path d="M84.344 155.933C84.3853 155.973 84.4293 156.015 84.485 156.024C84.5555 156.037 84.6222 155.994 84.6811 155.953C85.0528 155.693 85.4344 155.441 85.8548 155.273C86.2753 155.107 86.7413 155.03 87.1818 155.13C86.2843 154.47 85.0081 154.697 84.0077 154.211C83.9058 154.163 83.8023 154.104 83.6894 154.102C83.514 154.099 83.3671 154.23 83.247 154.36C83.0973 154.522 82.8391 154.757 82.7667 154.97C82.6732 155.246 82.8559 155.24 83.0989 155.295C83.5642 155.402 83.9915 155.602 84.344 155.933Z" fill="#E58C6C"/>
<path d="M54.5631 79.6778C56.0011 78.6142 57.7337 77.8768 59.5133 77.9194C59.9578 77.9291 60.4235 77.9965 60.7802 78.2661C61.137 78.5358 61.3391 79.0586 61.1288 79.4563C61.0066 79.686 60.7756 79.8333 60.5521 79.9653C58.8023 80.9945 56.8791 81.7196 54.8913 82.0993C54.523 82.1695 54.1279 82.2245 53.7848 82.0718C52.5053 81.4994 54.0022 80.0933 54.5631 79.6778Z" fill="#802419"/>
<path d="M76.0322 78.1189C74.4104 77.3746 72.5661 77.0113 70.8323 77.42C70.3993 77.5232 69.9567 77.6841 69.6617 78.0226C69.3666 78.3597 69.2738 78.9128 69.5595 79.2581C69.7256 79.459 69.9813 79.5553 70.2266 79.6379C72.1465 80.2845 74.175 80.5955 76.1973 80.5569C76.5721 80.55 76.9701 80.5225 77.2751 80.301C78.4127 79.4769 76.6647 78.4092 76.0322 78.1189Z" fill="#802419"/>
<path d="M61.3626 87.3069C61.3626 88.4035 60.5773 89.2922 59.6086 89.2922C58.6399 89.2922 57.8545 88.4035 57.8545 87.3069C57.8545 86.2089 58.6399 85.3201 59.6086 85.3201C60.5773 85.3201 61.3626 86.2089 61.3626 87.3069Z" fill="#802419"/>
<path d="M76.043 86.2118C76.043 87.3083 75.2577 88.1971 74.289 88.1971C73.3202 88.1971 72.5349 87.3083 72.5349 86.2118C72.5349 85.1138 73.3202 84.225 74.289 84.225C75.2577 84.225 76.043 85.1138 76.043 86.2118Z" fill="#802419"/>
<path d="M71.1815 100.075C71.1815 101.576 70.3718 102.794 69.3728 102.794C68.374 102.794 67.5642 101.576 67.5642 100.075C67.5642 98.5724 68.374 97.3561 69.3728 97.3561C70.3718 97.3561 71.1815 98.5724 71.1815 100.075Z" fill="white"/>
<path d="M37.4872 74.2974C38.0578 73.9782 38.7839 73.9471 39.261 73.4971C39.8935 72.9007 39.7984 71.8846 39.9869 71.0298C40.4532 68.9148 42.7275 67.7708 44.8188 67.3253C46.91 66.8796 49.1771 66.7913 50.9314 65.5538C53.0531 64.0573 53.8559 61.269 54.1449 58.6644C54.2398 57.8084 54.2927 56.948 54.3082 56.0867C53.9085 56.0956 53.5088 56.1036 53.1103 56.12C50.0769 56.2443 47.0692 56.8918 44.2374 58.0005C44.1773 58.0947 44.1165 58.1884 44.0552 58.2814C42.4322 60.7431 40.4114 62.9343 38.098 64.741C37.6257 65.1098 37.1178 65.4932 36.9013 66.0566C36.4212 67.3057 37.5982 68.622 37.5056 69.9593C37.4378 70.9394 36.6966 71.739 35.8909 72.2844C35.0852 72.8298 34.1717 73.2159 33.4385 73.8578C32.8983 74.331 32.4768 74.9254 31.9906 75.4554C30.9516 76.5876 29.5918 77.3759 28.1249 77.7873C27.0242 81.9685 27.374 86.5901 29.1932 90.5223C32.6232 87.0097 35.0166 82.4528 35.9141 77.5906C36.1434 76.3486 36.396 74.9079 37.4872 74.2974Z" fill="#29333A"/>
<path d="M66.4711 90.6049L66.4706 90.6241C66.4706 91.8431 67.4455 92.8324 68.6481 92.8324C69.8507 92.8324 70.8257 91.8431 70.8257 90.6241L70.8253 90.6049H66.4711Z" fill="#802419"/>
<path d="M50.0031 95.3572C47.6678 95.2581 45.344 94.3679 43.6402 92.7444C41.9367 91.1209 40.9024 88.7517 41.0307 86.3852C41.1014 85.0795 41.5948 83.694 42.7 83.0226C43.5441 82.5094 44.6 82.4998 45.5673 82.6841C45.5807 82.6855 45.5941 82.6883 45.6075 82.691C47.4625 83.0556 48.8551 84.6255 49.059 86.531L50.0031 95.3572Z" fill="#FECBA5"/>
<path d="M45.732 86.5432C45.616 86.5983 45.501 86.6712 45.3888 86.7606C44.9309 87.1266 44.626 87.6728 44.5519 88.2589C44.4778 88.845 44.6372 89.4518 44.9894 89.9224C45.0287 89.976 45.0872 90.0063 45.1476 90.0104C45.199 90.0145 45.2522 89.9994 45.2967 89.9664C45.3933 89.8921 45.4121 89.7517 45.3389 89.6541C45.0557 89.2757 44.9275 88.7873 44.9871 88.3153C45.0465 87.8448 45.2919 87.4045 45.6602 87.1101C45.7947 87.0028 45.9963 86.8789 46.2167 86.8652C46.9762 87.4472 47.5498 88.2933 47.8059 89.222C47.8314 89.3142 47.9111 89.3761 48.0005 89.383C48.0251 89.3858 48.0508 89.383 48.0762 89.3761C48.193 89.3431 48.2611 89.2193 48.2284 89.101C47.9223 87.9934 47.2058 86.9904 46.2617 86.3506C45.3174 85.7108 44.1299 85.4233 43.0026 85.5609C42.8824 85.576 42.7966 85.6861 42.8111 85.8085C42.8257 85.931 42.9346 86.0177 43.0552 86.0025C43.969 85.8911 44.9266 86.0878 45.732 86.5432Z" fill="#E58C6C"/>
<path d="M48.9848 91.5666C48.9353 91.4537 48.8056 91.4042 48.6949 91.4538C47.4503 92.0206 46.011 91.4606 45.0788 90.7479C44.4828 90.2925 43.715 89.5234 43.4402 88.4502C43.4096 88.3305 43.29 88.259 43.1728 88.2906C43.0554 88.3209 42.9852 88.442 43.0154 88.5617C43.322 89.7601 44.1631 90.6048 44.8148 91.1029C45.4801 91.612 46.3846 92.0467 47.3236 92.1197C47.8414 92.1596 48.3701 92.0894 48.8743 91.8596C48.9849 91.8101 49.0344 91.678 48.9848 91.5666Z" fill="#E58C6C"/>
<path d="M35.3708 157.997L18.4525 162.027C18.4525 162.027 18.6411 166.518 20.3019 171.452L36.0221 163.135C35.775 160.705 35.3708 158.355 35.3708 157.997Z" fill="#E58C6C"/>
<path d="M61.6381 153.912C53.647 160.851 39.0351 163.67 36.1814 166.371C36.1902 165.401 36.1096 164.259 35.9954 163.135L20.2753 171.452C21.8694 176.188 24.8198 181.33 30.2654 183.302C41.3844 187.328 69.4452 158.479 69.4452 158.479C69.4452 158.479 64.0597 155.222 61.6381 153.912Z" fill="#FECBA5"/>
<path d="M12.6794 134.33C13.8876 126.119 23.7244 121.709 28.4386 128.191C34.9699 137.169 36.9526 162.627 36.9526 162.627L16.8426 167.517C16.8426 167.517 11.6933 141.031 12.6794 134.33Z" fill="#FFAF3F"/>
<path d="M125.164 61.5036C125.163 61.4899 125.161 61.4764 125.16 61.4627H124.221C124.222 61.4771 124.224 61.4914 124.226 61.5058C124.541 61.505 124.855 61.5043 125.164 61.5036Z" fill="#F8A97E"/>
<path d="M210 195H0V209.985H210V195Z" fill="#C1AD94"/>
</g>
</svg>
