<svg width="237" height="75" viewBox="0 0 237 75" fill="none" xmlns="http://www.w3.org/2000/svg">
<path fill-rule="evenodd" clip-rule="evenodd" d="M37.1625 75C8.66999 74.9287 0 66.1462 0 37.5V37.1625C0.0675 8.66999 8.85 0 37.5 0H37.8337C66.3262 0.0675 75 8.85 75 37.5V37.8338C74.9325 66.3263 66.1462 75 37.5 75H37.1625Z" fill="#0092FF"/>
<path fill-rule="evenodd" clip-rule="evenodd" d="M35.0653 13.7647C35.7034 13.1656 36.5612 12.7969 37.5059 12.7969C39.4644 12.7969 41.056 14.3815 41.0684 16.3365V16.3595V26.0209H50.1715C54.3526 26.0209 57.7468 29.415 57.7468 33.5962C57.7468 34.1066 54.4324 52.038 54.4324 52.038C53.789 55.5669 50.6944 58.2468 46.9812 58.2468H24.8403C20.6592 58.2468 17.265 54.8526 17.265 50.6715V33.5962C17.265 31.4303 18.176 29.4771 19.6329 28.0964L35.0653 13.7647Z" fill="white"/>
<path d="M86.5854 9.93384H97.753C100.278 9.93384 102.511 10.4343 104.453 11.4351C106.363 12.4718 107.885 13.9016 108.953 15.7961C110.021 17.6906 110.539 19.9068 110.539 22.4447C110.539 24.9827 110.021 27.1989 108.953 29.0934C107.885 30.9879 106.363 32.4177 104.453 33.4186C102.511 34.4552 100.278 34.9557 97.753 34.9557H86.5854V9.93384ZM97.4293 28.3785C99.0801 28.3785 100.375 27.8423 101.378 26.8057C102.349 25.7691 102.835 24.3393 102.835 22.4447C102.835 20.5502 102.349 19.0847 101.378 18.0838C100.375 17.0472 99.0801 16.511 97.4293 16.511H94.2247V28.3785H97.4293Z" fill="#003654"/>
<path d="M124.172 35.5276C120.708 35.5276 117.989 34.491 116.047 32.4177C114.105 30.3445 113.134 27.4491 113.134 23.6958V9.93384H120.773V23.4456C120.773 25.2686 121.064 26.627 121.679 27.4491C122.262 28.2713 123.104 28.7002 124.236 28.7002C125.369 28.7002 126.211 28.2713 126.794 27.4491C127.409 26.627 127.7 25.2686 127.7 23.4456V9.93384H135.21V23.6958C135.21 27.4491 134.239 30.3445 132.296 32.4177C130.354 34.491 127.635 35.5276 124.172 35.5276Z" fill="#003654"/>
<path d="M147.924 26.6627L146.208 28.7717V34.9557H138.699V9.93384H146.208V19.0132L153.653 9.93384H161.972L152.909 20.9434L162.426 34.9557H153.589L147.924 26.6627Z" fill="#003654"/>
<path d="M173.986 35.5276C170.522 35.5276 167.803 34.491 165.861 32.4177C163.919 30.3445 162.948 27.4491 162.948 23.6958V9.93384H170.587V23.4456C170.587 25.2686 170.878 26.627 171.493 27.4491C172.076 28.2713 172.918 28.7002 174.051 28.7002C175.183 28.7002 176.025 28.2713 176.608 27.4491C177.223 26.627 177.514 25.2686 177.514 23.4456V9.93384H185.024V23.6958C185.024 27.4491 184.053 30.3445 182.111 32.4177C180.168 34.491 177.449 35.5276 173.986 35.5276Z" fill="#003654"/>
<path d="M210.848 9.93384V34.9557H204.568L195.958 23.5886V34.9557H188.513V9.93384H194.792L203.403 21.3009V9.93384H210.848Z" fill="#003654"/>
<path d="M229.523 21.7592H236.159V32.3398C234.832 33.3764 233.278 34.1628 231.497 34.699C229.717 35.2352 228.002 35.5212 226.286 35.5212C223.858 35.5212 221.689 34.9492 219.78 33.8411C217.87 32.733 216.348 31.196 215.28 29.1942C214.18 27.2282 213.629 24.9762 213.629 22.4383C213.629 19.9004 214.18 17.6484 215.28 15.6467C216.348 13.6807 217.87 12.1079 219.844 10.9998C221.787 9.89165 223.988 9.35547 226.448 9.35547C228.681 9.35547 230.656 9.74867 232.436 10.5708C234.184 11.393 235.641 12.6083 236.806 14.1811L231.918 18.9353C230.494 17.1122 228.811 16.1829 226.836 16.1829C225.153 16.1829 223.826 16.7548 222.822 17.8629C221.819 18.971 221.333 20.5081 221.333 22.4383C221.333 24.3328 221.819 25.8341 222.822 26.978C223.793 28.1218 225.088 28.6938 226.739 28.6938C227.71 28.6938 228.649 28.4793 229.523 28.0861V21.7592Z" fill="#003654"/>
<path d="M95.8108 57.3466L94.0952 59.4555V65.6395H86.5854V40.6177H94.0952V49.697L101.54 40.6177H109.859L100.796 51.6273L110.312 65.6395H101.475L95.8108 57.3466Z" fill="#003654"/>
<path d="M125.655 61.2786H117.045L115.523 65.6395H107.755L117.66 40.6177H125.17L135.075 65.6395H127.176L125.655 61.2786ZM123.551 55.2018L121.35 48.9106L119.149 55.2018H123.551Z" fill="#003654"/>
<path d="M146.009 59.3483H143.938V65.6395H136.298V40.6177H147.207C149.311 40.6177 151.124 41.0109 152.677 41.7615C154.231 42.5122 155.429 43.6203 156.27 45.0501C157.112 46.4799 157.533 48.16 157.533 50.0545C157.533 51.8418 157.177 53.4146 156.432 54.7371C155.688 56.0597 154.652 57.1321 153.26 57.9185L158.018 65.6395H149.861L146.009 59.3483ZM149.829 50.0545C149.829 49.1251 149.57 48.4102 149.052 47.874C148.534 47.3736 147.757 47.1234 146.721 47.1234H143.938V52.9856H146.721C147.757 52.9856 148.534 52.7354 149.052 52.1992C149.57 51.6988 149.829 50.9839 149.829 50.0545Z" fill="#003654"/>
<path d="M173.566 56.5602V65.6395H165.926V56.4529L157.381 40.6177H165.441L170.07 49.2681L174.731 40.6177H182.111L173.566 56.5602Z" fill="#003654"/>
<path d="M197.058 61.2786H188.447L186.926 65.6395H179.157L189.062 40.6177H196.572L206.477 65.6395H198.579L197.058 61.2786ZM194.954 55.2018L192.752 48.9106L190.551 55.2018H194.954Z" fill="#003654"/>
</svg>
