<svg width="160" height="291" viewBox="0 0 160 291" fill="none" xmlns="http://www.w3.org/2000/svg">
<path d="M74.7862 189.726C70.5437 187.497 67.2666 188.994 64.5304 193.806C60.877 200.229 55.7945 216.262 59.3978 218.39C63.5243 220.824 70.4883 215.577 74.5756 207.791C78.6632 200.005 79.0291 191.953 74.7862 189.726Z" fill="#003654"/>
<path d="M70.9754 188.721C68.4886 188.806 66.3843 190.545 64.5275 193.808C60.8757 200.232 55.7927 216.265 59.3958 218.391C59.5641 218.491 59.7368 218.578 59.9155 218.651C60.284 204.165 67.0711 193.619 70.9754 188.721Z" fill="white"/>
<path d="M74.9633 205.972C74.9633 205.972 72.2389 204.597 69.5314 201.443C69.1654 201.017 69.2144 200.374 69.6409 200.009C70.0665 199.643 70.7084 199.692 71.0743 200.119C73.4791 202.922 75.8857 204.16 75.8857 204.16C76.386 204.415 76.5846 205.027 76.3299 205.528C76.0753 206.027 75.4636 206.227 74.9633 205.972Z" fill="white"/>
<path d="M73.5745 208.952C73.5745 208.952 70.8501 207.577 68.1426 204.423C67.7767 203.997 67.8266 203.354 68.2522 202.989C68.6777 202.624 69.3197 202.672 69.6856 203.099C72.0913 205.902 74.4978 207.14 74.4978 207.14C74.9973 207.395 75.1958 208.007 74.9412 208.508C74.6866 209.007 74.074 209.207 73.5745 208.952Z" fill="white"/>
<path d="M72.2389 211.711C72.2389 211.711 69.5145 210.336 66.807 207.182C66.442 206.756 66.4909 206.114 66.9165 205.748C67.3421 205.383 67.9849 205.432 68.35 205.858C70.7556 208.661 73.1622 209.899 73.1622 209.899C73.6617 210.154 73.8611 210.766 73.6065 211.267C73.3518 211.766 72.7393 211.966 72.2389 211.711Z" fill="white"/>
<path d="M11.2755 257.945C6.76832 259.575 5.66302 263.003 7.36973 268.268C9.64669 275.297 18.0543 289.865 22.0555 288.64C26.6375 287.236 27.4605 278.555 24.4696 270.286C21.4795 262.017 15.7814 256.314 11.2755 257.945Z" fill="#003654"/>
<path d="M7.95512 260.072C6.34087 261.966 6.20501 264.693 7.36192 268.265C9.63933 275.293 18.047 289.86 22.0483 288.635C22.2346 288.578 22.4149 288.509 22.5893 288.428C12.1438 278.383 8.93695 266.259 7.95512 260.072Z" fill="white"/>
<path d="M23.3895 268.771C23.3895 268.771 20.5369 269.855 16.3817 269.726C15.8208 269.708 15.3801 269.239 15.397 268.678C15.4148 268.118 15.884 267.676 16.4449 267.694C20.1371 267.809 22.6746 266.868 22.6746 266.868C23.1999 266.671 23.7866 266.937 23.9842 267.462C24.181 267.988 23.9148 268.574 23.3895 268.771Z" fill="white"/>
<path d="M24.6453 271.804C24.6453 271.804 21.7926 272.888 17.6375 272.759C17.0766 272.741 16.635 272.272 16.6528 271.711C16.6706 271.151 17.1398 270.709 17.7007 270.727C21.3929 270.842 23.9303 269.901 23.9303 269.901C24.4556 269.704 25.0423 269.97 25.2391 270.495C25.4368 271.02 25.1706 271.607 24.6453 271.804Z" fill="white"/>
<path d="M25.786 274.652C25.786 274.652 22.9325 275.735 18.7782 275.606C18.2173 275.589 17.7757 275.119 17.7935 274.558C17.8113 273.998 18.2805 273.557 18.8414 273.575C22.5336 273.689 25.0711 272.748 25.0711 272.748C25.5964 272.552 26.1831 272.818 26.3799 273.342C26.5775 273.868 26.3113 274.454 25.786 274.652Z" fill="white"/>
<path d="M64.3481 135.87C61.2524 137.062 57.7588 180.334 9.60437 258.879C9.60437 258.879 19.6188 270.031 24.5539 265.045C24.5539 265.045 79.384 179.661 81.5413 176.236C83.9585 172.398 89.061 172.647 92.4416 175.34C94.3896 176.892 109.141 191.143 99.8563 191.591C90.5728 192.038 81.6259 190.39 75.9206 190.23C74.862 190.201 70.5323 200.069 74.854 203.376C79.1774 206.683 122.358 212.412 127.267 205.024C134.074 194.782 112.146 157.389 106.723 151.215C101.3 145.042 67.4447 134.679 64.3481 135.87Z" fill="#5D5D5D"/>
<path d="M57.1799 158.414C61.7162 144.036 63.0632 136.363 64.3417 135.87C67.4392 134.678 101.295 145.042 106.718 151.215C108.085 152.771 110.501 156.312 113.24 160.899C104.142 157.916 94.7358 156.129 85.1488 155.664C76.9764 155.268 68.6794 156.013 60.6665 157.656C59.501 157.894 58.3347 158.135 57.1799 158.414Z" fill="#535353"/>
<path d="M86.9767 141.577C87.2954 141.689 87.6141 141.801 87.932 141.915C88.5543 147.994 89.1606 156.095 88.9594 163.29C88.9372 164.076 88.9051 164.853 88.8624 165.613C88.9025 165.61 88.9425 165.61 88.9844 165.616C90.2593 165.814 91.2173 165.3 91.9305 164.297C92.7166 163.191 93.2179 161.534 93.5286 159.561C94.2266 155.129 93.9399 149.138 93.4333 143.993C93.753 144.121 94.0708 144.25 94.3842 144.378C94.8677 149.486 95.1205 155.341 94.4332 159.703C94.0966 161.842 93.5295 163.63 92.6775 164.829C91.7515 166.129 90.4997 166.778 88.8437 166.521C88.8312 166.519 88.8188 166.517 88.8063 166.514C88.6327 169.034 88.3335 171.373 87.8723 173.389C87.5661 173.353 87.2589 173.333 86.9544 173.332C87.6177 170.513 87.9382 167.013 88.0433 163.263C88.2489 155.938 87.6115 147.667 86.9767 141.577Z" fill="#515151"/>
<path d="M90.3512 207.062C82.6338 205.978 76.3677 204.526 74.8559 203.368C70.5333 200.062 74.863 190.193 75.9225 190.222C81.4212 190.377 89.9336 191.914 98.8565 191.623C98.6348 191.84 98.4176 192.062 98.2048 192.287C96.1241 194.492 94.3007 197.006 92.8272 199.655C91.4365 202.156 90.6361 204.535 90.3512 207.062Z" fill="#6E6E6E"/>
<path d="M131.021 106.197C131.198 104.186 139.789 86.2102 140.062 80.1726L148.448 83.6392C146.912 95.3247 144.002 105.863 140.515 115.92C140.515 115.92 130.845 108.209 131.021 106.197Z" fill="#FECBA5"/>
<path d="M134.405 97.3913C135.711 100.457 138.957 104.602 143.902 105.234C142.862 108.872 141.721 112.423 140.509 115.917C140.509 115.917 130.839 108.206 131.015 106.193C131.089 105.356 132.621 101.751 134.405 97.3913Z" fill="#E58C6C"/>
<path d="M148.616 84.0851C146.721 85.377 143.28 86.4623 141.216 85.0778C138.554 83.2918 134.223 75.1792 132.64 73.3673C132.151 72.8055 130.865 71.1753 131.185 70.3536C131.9 68.5088 137.718 73.6513 137.75 73.6193C137.962 73.4101 138.396 63.9637 140.137 63.3066C142.136 62.5516 141.969 70.1969 142.264 70.1764C142.587 70.155 144.389 62.9247 146.892 63.3547C148.605 63.6494 146.762 71.1032 146.95 71.211C147.021 71.2519 151.632 65.869 153.012 67.0887C154.464 68.3726 150.675 72.5046 150.439 74.1036C150.418 74.2488 155.5 71.4211 156.015 72.8705C156.323 73.7395 153.05 76.7346 152.589 77.3284C150.739 79.7172 150.512 82.7941 148.616 84.0851Z" fill="#FECBA5"/>
<path d="M27.5196 51.2162C27.5196 51.2162 22.6548 25.8538 23.0203 14.8726L13.0028 16.5697C13.0028 16.5697 5.80649 58.4962 19.9795 60.0747C31.85 61.3969 27.1195 49.2775 27.5196 51.2162Z" fill="#FECBA5"/>
<path d="M11.2934 42.5173C11.9291 43.7709 15.3195 49.0229 26.7131 46.8069C27.1386 49.2232 27.444 50.8374 27.5054 51.1597C27.5081 51.1775 27.5117 51.198 27.517 51.2194L27.5054 51.1597C27.2197 49.5482 31.7158 61.3851 19.9777 60.0772C13.9546 59.4068 11.7902 51.4482 11.2934 42.5173Z" fill="#E58C6C"/>
<path d="M21.4843 17.3109C22.3515 16.8025 23.5552 15.6122 25.562 12.4729C26.9491 10.3022 26.8815 8.81627 26.666 7.60186C26.1924 4.93176 23.3486 5.85504 23.1635 5.54965C22.9881 5.26029 23.0068 -0.299815 18.4046 0.0126905C16.6293 0.133775 16.6311 1.60193 16.6311 1.60193C16.6311 1.60193 15.4612 0.161376 13.58 0.65818C11.7477 1.14252 11.5927 3.36834 11.5927 3.36834C11.5927 3.36834 10.3018 2.70861 9.3678 4.28093C8.66889 5.45617 9.16392 6.61805 9.16392 6.61805C9.16392 6.61805 8.20948 5.77491 7.2141 7.37928C6.21069 8.99523 6.40746 9.59353 7.62543 11.757C8.74368 13.7442 11.526 17.2682 13.4446 18.0641C16.7958 19.4548 19.0991 18.7087 21.4843 17.3109Z" fill="#FECBA5"/>
<path d="M18.7612 6.4605C20.1323 5.86843 21.6459 5.58263 23.1114 5.30752C23.131 5.43751 23.147 5.52387 23.1648 5.55325C23.1817 5.58174 23.2209 5.59955 23.2796 5.61023C22.8184 5.71173 22.2638 5.83192 22.0145 5.89692C21.564 6.01622 21.1144 6.14176 20.6719 6.28955C20.2979 6.41509 19.9231 6.53618 19.5572 6.68308C18.4238 7.13982 17.1079 7.66422 16.8194 8.9828C16.7099 9.48495 16.7918 9.90429 17.2103 10.2604C17.5067 10.5142 17.9421 10.6735 18.3098 10.7537C19.2874 10.9656 20.273 11.0555 21.2711 11.1089C21.6156 11.1276 21.9628 11.1445 22.3083 11.1214C22.4365 11.1125 21.3574 11.3288 20.8348 11.3422C20.216 11.3591 19.3284 11.3849 18.4977 11.2576C18.4158 11.3172 18.3499 11.3689 18.3276 11.3867C17.6884 11.871 17.1898 12.5593 16.8853 13.2982C16.7891 13.5324 16.5568 14.1494 16.5772 13.9998C16.6725 13.2751 16.9645 12.1079 17.3937 11.5158C17.4907 11.3805 17.6082 11.2166 17.7462 11.0884C17.0402 10.8676 16.4668 10.4732 16.2808 9.7752C16.1401 9.80101 15.9789 9.79033 15.8765 9.77787C15.7724 9.7654 15.6673 9.74047 15.564 9.70486C15.5249 9.78588 15.451 9.87847 15.3993 9.98353C15.3379 10.1055 15.2684 10.2212 15.191 10.3334C14.7494 10.97 13.892 11.1232 13.1495 10.9593C13.1103 11.2994 12.9732 11.6725 12.8565 11.9841C12.7177 12.3527 12.5431 12.7293 12.2832 13.0294C11.8442 13.5368 11.0661 13.4531 10.5079 13.2199C9.35221 12.7373 8.48948 11.8461 7.83508 10.8017C7.82618 10.792 7.81728 10.783 7.80927 10.7741L7.82262 10.7813C7.82707 10.7875 7.83152 10.7946 7.83508 10.8017C8.01849 10.9887 8.19745 11.181 8.38531 11.3644C9.0762 12.0429 10.1713 12.9822 11.2317 12.8789C11.9858 12.8059 12.4969 11.9031 12.674 11.2523C12.7114 11.1151 12.7061 10.9638 12.7194 10.8231C12.6099 10.7768 12.5066 10.7234 12.4105 10.6629C10.8186 9.655 9.45994 8.09069 8.60344 6.40263C8.8741 6.42221 9.06997 6.54953 9.13853 6.60117C9.29255 6.87005 9.48487 7.1327 9.62198 7.31432C10.5319 8.52428 11.651 10.077 13.202 10.4358C13.6035 10.5293 14.1333 10.5792 14.5108 10.3735C14.7699 10.2319 14.9497 9.97552 15.1118 9.73602C15.1269 9.71198 15.1652 9.62562 15.2043 9.54549C14.7992 9.3238 14.4217 8.98814 14.1351 8.70413C13.2456 7.8227 12.6714 6.60206 12.1113 5.50784C11.7463 4.7938 11.3902 4.0575 11.2326 3.26154C11.4543 3.30072 11.5941 3.37283 11.5941 3.37283C11.5941 3.37283 11.5949 3.35057 11.6003 3.30962C11.6119 3.3479 11.6243 3.38619 11.6359 3.42358C11.8291 4.01476 12.1096 4.56142 12.3909 5.11432C12.9785 6.26997 13.6204 7.36151 14.4565 8.35779C14.7832 8.74775 15.2275 9.28551 15.7519 9.41194C15.9015 9.44844 16.0662 9.44399 16.222 9.41194C16.2202 9.37811 16.2184 9.34338 16.2175 9.30777C16.1935 8.10405 16.9868 7.39267 17.9635 6.85135C18.0329 6.81307 18.1024 6.77567 18.1718 6.74006C18.1237 6.36968 18.0249 6.01978 17.9501 5.7331C17.6821 4.70388 17.3981 3.63281 17.026 2.63831C16.8888 2.27239 16.7651 1.9029 16.636 1.53519C16.6476 1.41233 16.6885 1.14968 16.8426 0.875458C17.2147 1.59662 17.48 2.38635 17.7338 3.15381C17.9172 3.70671 18.0694 4.26761 18.2261 4.82852C18.349 5.27191 18.4968 5.71173 18.657 6.14354C18.6909 6.23346 18.7301 6.34832 18.7612 6.4605Z" fill="#D06644"/>
<path d="M60.2888 141.402C60.2888 141.402 57.1418 151.63 59.8055 151.455C64.4747 151.148 91.9082 152.052 111.301 156.762C111.301 156.762 114.437 157.868 108.523 151.112C102.608 144.357 64.7725 138.539 60.2888 141.402Z" fill="#5EBAFF"/>
<path d="M63.859 141.628L63.6088 154.07C63.6044 154.323 63.8047 154.532 64.0576 154.537C64.3104 154.542 64.5196 154.342 64.525 154.089L64.7752 141.646C64.7805 141.394 64.5793 141.184 64.3264 141.179C64.0736 141.174 63.8644 141.375 63.859 141.628Z" fill="#5B8A9E"/>
<path d="M71.6909 142.939L71.2849 155.377C71.276 155.63 71.4754 155.842 71.7274 155.851C71.9802 155.859 72.1921 155.66 72.2002 155.407L72.6061 142.97C72.615 142.717 72.4165 142.505 72.1637 142.497C71.9108 142.489 71.6989 142.687 71.6909 142.939Z" fill="#5B8A9E"/>
<path d="M80.0108 142.93L79.3502 155.357C79.3359 155.609 79.5309 155.826 79.7829 155.839C80.0357 155.852 80.2512 155.658 80.2645 155.405L80.9251 142.978C80.9385 142.726 80.7444 142.51 80.4924 142.497C80.2396 142.483 80.0241 142.677 80.0108 142.93Z" fill="#5B8A9E"/>
<path d="M86.7021 144.283L86.2649 156.72C86.256 156.972 86.4537 157.184 86.7065 157.193C86.9594 157.202 87.1713 157.004 87.1802 156.752L87.6173 144.315C87.6262 144.062 87.4286 143.85 87.1757 143.841C86.9229 143.832 86.711 144.03 86.7021 144.283Z" fill="#5B8A9E"/>
<path d="M93.9882 144.375L93.4104 156.805C93.3979 157.058 93.5938 157.273 93.8457 157.284C94.0986 157.297 94.3131 157.101 94.3247 156.848L94.9034 144.417C94.915 144.165 94.7191 143.95 94.4672 143.938C94.2143 143.927 93.9997 144.123 93.9882 144.375Z" fill="#5B8A9E"/>
<path d="M101.219 145.786L101.752 158.22C101.762 158.473 101.976 158.668 102.228 158.658C102.481 158.647 102.678 158.433 102.666 158.181L102.134 145.747C102.123 145.495 101.91 145.298 101.657 145.309C101.404 145.321 101.208 145.534 101.219 145.786Z" fill="#5B8A9E"/>
<path d="M107.471 148.703L107.952 161.138C107.962 161.391 108.176 161.587 108.428 161.578C108.681 161.568 108.877 161.355 108.867 161.102L108.386 148.667C108.376 148.414 108.163 148.217 107.91 148.227C107.658 148.237 107.461 148.45 107.471 148.703Z" fill="#5B8A9E"/>
<path d="M27.4801 46.4613C27.4801 46.4613 57.0265 69.048 70.572 73.8345C83.6154 78.4437 102.727 85.5788 113.978 97.0872C119.226 102.454 124.762 108.954 125.753 107.834C127.281 106.105 127.653 104.464 128.899 103.985C131.642 102.93 142.272 110.806 142.731 116.293C143.158 121.392 139.367 136.411 126.333 130.67C111.783 124.263 107.93 120.044 107.93 120.044C107.93 120.044 112.202 140.39 110.897 148.217C110.457 150.855 110.03 152.466 108.814 151.805C101.787 147.986 66.6029 142.144 59.4981 144.346C59.4981 144.346 53.3886 140.079 57.9623 100.593C57.9623 100.593 46.9329 90.4329 35.9889 81.3088C27.4569 74.1933 20.8578 64.3729 18.1325 63.3286C15.4063 62.2842 22.066 50.3164 27.4801 46.4613Z" fill="#0092FF"/>
<path d="M12.2297 51.0495C12.2297 51.0495 23.4382 51.8556 26.5416 45.9136C26.5416 45.9136 30.6359 45.6466 33.0522 49.3962C36.271 54.3904 20.8719 66.1931 17.3945 63.0155C11.5596 57.6833 10.4473 52.7414 12.2297 51.0495Z" fill="#5EBAFF"/>
<path d="M132.995 100.085C132.995 100.085 127.754 102.941 129.125 107.158C130.497 111.372 140.701 118.245 142.555 115.474C144.408 112.704 143.673 108.018 143.253 107.189C142.834 106.359 137.177 106.536 132.995 100.085Z" fill="#5EBAFF"/>
<path d="M125.42 108.716C125.42 108.716 124.185 116.423 127.692 122.075C126.375 117.689 125.627 113.235 125.42 108.716Z" fill="#006CBD"/>
<path d="M107.931 120.041C107.675 119.004 104.035 104.263 102.897 101.164C101.717 97.9529 108.298 111.27 111.379 114.875C114.467 118.484 126.563 131.181 136.49 130.611C134.012 132.185 130.688 132.585 126.333 130.666C111.874 124.3 107.979 120.094 107.931 120.041Z" fill="#006CBD"/>
<path d="M63.4938 123.015C63.4938 123.015 75.7207 141.858 100.999 142.991C100.999 142.991 83.6714 140.677 63.4938 123.015Z" fill="#006CBD"/>
<path d="M59.3022 99.2291C59.3022 99.2291 64.1661 94.8237 66.5611 89.0847L59.3022 99.2291Z" fill="#006CBD"/>
<path d="M62.9312 80.843C62.9312 80.843 63.6871 91.8367 59.3022 97.3265C59.3022 97.3265 62.8537 86.5019 62.9312 80.843Z" fill="#006CBD"/>
<path d="M72.5801 74.6971C72.5801 74.6971 58.4621 77.0511 87.9115 98.0566C87.9115 98.0566 98.6106 86.6515 90.7846 82.4634C79.7695 76.5676 72.5801 74.6971 72.5801 74.6971Z" fill="#5EBAFF"/>
<path d="M73.9214 75.6786C73.9214 75.6786 63.5108 76.0321 87.4981 94.9836C87.4981 94.9836 95.4576 86.5184 89.139 82.454C80.2829 76.7568 73.9214 75.6786 73.9214 75.6786Z" fill="#E7F2F3"/>
<path d="M72.5348 66.3769C72.5348 66.3769 73.5516 72.0287 72.404 76.3931C71.9837 77.9921 81.1292 87.321 85.6218 88.6912C88.3159 89.5121 89.7022 86.7654 89.8001 83.0866C89.8001 83.0866 84.9451 77.1988 86.0919 70.4412C86.8504 65.9646 72.5348 66.3769 72.5348 66.3769Z" fill="#FECBA5"/>
<path d="M72.9536 71.1389C72.921 68.4944 72.5402 66.3758 72.5402 66.3758C72.5402 66.3758 86.8559 65.9641 86.0959 70.441C85.6384 73.14 86.1381 75.7009 86.9032 77.8009C81.9322 77.3401 76.1047 73.4939 72.9536 71.1389Z" fill="#E58C6C"/>
<path d="M95.6724 50.4939C98.2204 50.8119 100.005 53.3496 99.6562 56.1593C99.3066 58.9689 96.9536 60.9926 94.4055 60.6756C91.8567 60.3575 90.0721 57.8198 90.4208 55.0101C90.7704 52.2005 93.1235 50.1768 95.6724 50.4939Z" fill="#E58C6C"/>
<path d="M94.744 38.7648C94.744 38.7648 97.72 48.3109 94.6374 54.6249C91.5548 60.9389 86.5559 47.0507 86.5559 47.0507L83.0316 40.8081L94.744 38.7648Z" fill="#F39A1E"/>
<path d="M74.2352 33.3394C83.2343 31.1253 92.9942 38.9814 94.9758 49.6498C96.7275 59.0813 93.5327 69.2802 87.9994 71.2035C79.2458 74.2492 67.2976 69.2054 63.5363 58.9338C59.8047 48.7443 65.2353 35.5538 74.2352 33.3394Z" fill="#FECBA5"/>
<path d="M63.2974 58.2698C60.0335 48.1797 65.4217 35.5085 74.2253 33.3423C81.7726 31.4851 89.8542 36.7104 93.4351 44.7359C92.8305 45.0386 92.835 44.2649 92.3426 44.3495C87.9791 45.1054 81.8715 41.6464 78.8016 43.8099C74.4621 46.8673 68.707 45.7135 68.707 45.7135C68.4845 48.9436 64.0043 58.56 64.0043 58.56C64.0043 58.56 63.747 58.4692 63.2974 58.2698Z" fill="#E58C6C"/>
<path d="M64.4554 61.7537C64.4554 61.7537 67.3072 49.8714 67.2787 43.8955C67.2787 43.8955 73.4442 44.906 76.5479 43.3568C81.0191 41.1266 84.4905 42.7069 85.826 42.9224C89.7631 43.5598 95.3036 44.2783 99.4739 36.3357C102.999 29.6226 97.4119 25.0935 89.1425 27.3638C84.7452 28.5711 81.6913 27.1671 78.179 25.9179C67.6375 22.1723 64.5098 28.3209 63.5331 33.825C63.5331 33.825 48.7616 43.169 64.4554 61.7537Z" fill="#FFAF3F"/>
<path d="M60.3398 36.8666C63.2601 39.274 69.008 43.0152 75.1567 41.5123C83.9807 39.3551 86.0142 40.8713 88.4235 41.5355C89.7527 41.9023 91.5574 42.5202 93.7441 42.3946C90.9529 43.6936 88.1181 43.2948 85.8264 42.9235C84.4909 42.708 81.0195 41.1277 76.5482 43.358C73.4437 44.9071 67.279 43.8966 67.279 43.8966C67.3066 49.8725 64.4558 61.7549 64.4558 61.7549C53.933 49.2938 57.1061 40.987 60.3398 36.8666Z" fill="#F39A1E"/>
<path d="M61.028 55.9376C63.1354 54.4705 66.1601 55.1659 67.7777 57.4896C69.3953 59.8133 68.9988 62.8902 66.89 64.3583C64.7826 65.8253 61.7579 65.1299 60.1403 62.8062C58.5227 60.4826 58.9207 57.4046 61.028 55.9376Z" fill="#FECBA5"/>
<path d="M76.4305 50.6959C75.9037 50.7733 75.5732 51.4949 75.6925 52.3071C75.8124 53.1174 76.3356 53.7145 76.8624 53.6372C77.389 53.559 77.7205 52.8381 77.6021 52.0258C77.4821 51.2146 76.9581 50.6184 76.4305 50.6959Z" fill="#802419"/>
<path d="M89.087 49.7479C88.5555 49.7795 88.1643 50.4716 88.2153 51.29C88.2655 52.1093 88.7372 52.7468 89.2686 52.7143C89.8 52.6817 90.1912 51.9906 90.1401 51.1713C90.09 50.3528 89.6184 49.7154 89.087 49.7479Z" fill="#802419"/>
<path d="M79.6993 48.2201C79.6993 48.2201 76.3312 42.4401 72.4075 48.4827C72.4075 48.4827 76.2234 46.3798 79.6993 48.2201Z" fill="#802419"/>
<path d="M92.8529 47.2107C92.8529 47.2107 89.7145 41.9577 86.3 47.4947C86.3 47.4947 89.9958 45.4629 92.8529 47.2107Z" fill="#802419"/>
<path d="M85.4637 50.198C85.4637 50.198 84.8555 54.5555 85.5102 55.2212C86.5868 56.3197 86.3328 56.6816 85.4762 57.0927C85.4762 57.0927 89.7581 56.2783 87.6577 54.7463C85.7686 53.3679 85.4637 50.198 85.4637 50.198Z" fill="#802419"/>
<path d="M86.8146 59.375C85.618 59.1301 80.9277 58.0528 79.3198 57.8641C77.6896 57.6727 77.5409 64.1249 81.6569 65.1746C85.504 66.1548 88.3905 59.6964 86.8146 59.375Z" fill="#802419"/>
<path d="M87.2216 59.8148C87.1637 59.5762 87.032 59.4186 86.8165 59.375C85.6199 59.1302 80.9297 58.0529 79.3217 57.8641C79.0119 57.8276 78.7546 58.0315 78.5712 58.393C79.0626 59.3145 80.3385 59.9003 83.249 60.528C85.5033 61.015 86.6474 60.439 87.2216 59.8148Z" fill="white"/>
</svg>
