<svg width="104" height="79" viewBox="0 0 104 79" fill="none" xmlns="http://www.w3.org/2000/svg">
<path d="M32 77L45.6586 61.6527L36.7719 55.5114L32 77Z" fill="#B22626"/>
<path d="M25.5 45.5L103.999 0L0 37.8266L25.5 45.5Z" fill="white"/>
<path d="M32 77L36.7738 55.4998L104 0L25.5 45.5L32 77Z" fill="#C4CCCC"/>
<path fill-rule="evenodd" clip-rule="evenodd" d="M45.3315 27.1045C44.8841 25.2328 44.4794 23.4521 44.1215 21.788C44.4794 23.4521 44.8841 25.2328 45.3315 27.1045Z" fill="url(#paint0_radial)"/>
<path fill-rule="evenodd" clip-rule="evenodd" d="M50.0368 44.5468C49.5232 42.828 49.0095 41.0499 48.4959 39.2272C48.0096 37.4916 47.5466 35.7854 47.1069 34.1202C47.5466 35.7854 48.0096 37.4916 48.4959 39.2272C49.0095 41.0494 49.5232 42.828 50.0368 44.5468Z" fill="url(#paint1_radial)"/>
<path d="M36.7721 55.4998L69.5 78.5L103.998 0L36.7721 55.4998Z" fill="white"/>
<path d="M0 37.8266L49 32L103.999 0L0 37.8266Z" fill="#EF3030"/>
<path d="M57.0288 38.7759L69.5 78.5L103.999 0L57.0288 38.7759Z" fill="#EF3030"/>
<path d="M49 32L52.0795 42.8622L103.999 0L49 32Z" fill="#B22626"/>
<defs>
<radialGradient id="paint0_radial" cx="0" cy="0" r="1" gradientUnits="userSpaceOnUse" gradientTransform="translate(50.9732 38.0632) rotate(21.2219) scale(8.90397 9.32237)">
<stop stop-color="white"/>
<stop offset="1" stop-color="white"/>
</radialGradient>
<radialGradient id="paint1_radial" cx="0" cy="0" r="1" gradientUnits="userSpaceOnUse" gradientTransform="translate(50.9745 38.0511) rotate(21.2217) scale(8.90404 9.32239)">
<stop stop-color="#C4CCCC"/>
<stop offset="1" stop-color="#C4CCCC"/>
</radialGradient>
</defs>
</svg>
