<svg width="105" height="242" viewBox="0 0 105 242" fill="none" xmlns="http://www.w3.org/2000/svg">
<path d="M8.31406 198.288C8.31406 198.288 23.2032 246.107 32.0531 239.646C40.9021 233.185 54.0766 190.224 54.0766 190.224L45.3819 187.893L32.8058 211.848L29.2939 191.325L8.31406 198.288Z" fill="#EC9A6F"/>
<path d="M32.9602 208.766L43.409 187.806L53.3295 191.505C53.3295 191.505 46.8116 219.25 39.482 232.588C39.4697 222.768 34.7352 212.334 32.9602 208.766Z" fill="#D06644"/>
<path d="M28.3739 191.631C28.739 192.017 29.1493 192.478 29.5797 193L32.1332 207.921C27.4757 209.212 16.5192 206.234 10.3109 204.312C9.05809 200.677 8.31406 198.288 8.31406 198.288L28.3739 191.631Z" fill="#D06644"/>
<path d="M37.7496 201.88C37.7496 201.88 61.3248 238.028 69.8567 229.997C78.3877 221.967 80.5788 179.169 80.5788 179.169L73.312 175.018L66.5295 201.919L55.5582 187.385L37.7496 201.88Z" fill="#EC9A6F"/>
<path d="M61.9549 193.795C56.3414 198.309 45.1779 203.793 39.802 206.318C38.0498 204.177 36.9872 202.734 36.9872 202.734L56.5839 187.729L61.9549 193.795Z" fill="#D06644"/>
<path d="M71.1863 171.609C72.0388 167.872 73.5015 166.787 77.0014 168.42C84.1066 171.732 104.642 187.387 101.277 188.97C97.4756 190.756 90.5654 188.254 84.288 184.97C75.9864 180.627 70.2622 175.661 71.1863 171.609Z" fill="#EC9A6F"/>
<path d="M72.4814 171.687C72.2673 172.176 72.0612 172.714 71.8588 173.3C70.1462 178.247 75.3624 182.766 83.4387 185.972C87.2833 187.499 91.4499 188.608 95.103 188.477C93.8534 181.736 78.5329 174.339 72.4814 171.687Z" fill="#EC9A6F"/>
<path d="M94.8784 188.936C97.0121 188.898 98.964 188.425 100.563 187.356C104.386 184.803 85.2749 170.881 78.3129 168.517C75.3253 167.502 73.6271 168.567 72.2358 171.86C78.2724 174.591 93.5793 182.183 94.8784 188.936Z" fill="#629482"/>
<path d="M5.02725 159.982C5.02725 159.982 -1.46509 192.578 4.00705 199.495C6.75488 202.969 27.963 209.071 33.4343 204.635L33.7392 200.639L38.3436 204.875C38.3436 204.875 62.6384 197.393 62.8475 187.112C63.0052 179.387 47.8434 172.216 45.0511 166.123C42.258 160.029 5.02725 159.982 5.02725 159.982Z" fill="#FDB44E"/>
<path d="M3.97028 165.665C4.52749 162.233 4.97667 159.987 4.97667 159.987C4.97667 159.987 42.2485 160.257 45.0653 166.256C45.7841 167.784 47.3042 169.384 49.1712 171.046C37.103 179.332 14.7702 170.709 3.97028 165.665Z" fill="#D88E4A"/>
<path d="M22.3844 187.051C23.0483 190.052 24.0963 192.874 25.695 195.188C25.8353 195.391 25.7848 195.67 25.5818 195.812C25.3779 195.952 25.0991 195.9 24.958 195.697C21.9192 191.302 20.7822 185.129 20.5304 179.3C20.1549 170.628 21.7214 162.73 21.7214 162.73C21.7693 162.488 22.0054 162.331 22.2485 162.378C22.4907 162.426 22.6484 162.662 22.6005 162.905C22.6005 162.905 21.0558 170.7 21.4261 179.261C21.5245 181.553 21.7606 183.901 22.2014 186.168C23.3462 186.048 24.5842 185.313 25.4101 182.613C26.2099 179.995 27.725 163.887 27.725 163.887C27.7485 163.64 27.9672 163.46 28.2137 163.482C28.4594 163.506 28.6406 163.724 28.618 163.971C28.618 163.971 27.0751 180.232 26.2674 182.874C25.729 184.635 25.0137 185.664 24.2654 186.266C23.6494 186.76 23.0038 186.976 22.3844 187.051Z" fill="#B96634"/>
<path d="M33.0062 204.94C32.2195 202.554 31.4371 201.517 28.3591 199.037C25.8421 197.008 15.8815 192.402 20.4441 193.444C25.4178 194.58 29.0831 195.109 29.5675 195.389C30.0519 195.668 33.7859 200.663 33.7859 200.663L33.7903 200.686L33.7389 200.638L33.4339 204.634C33.3006 204.742 33.1578 204.844 33.0062 204.94Z" fill="#D88E4A"/>
<path d="M40.7578 106.724C40.7578 106.724 26.2703 68.7603 42.5682 33.9473C42.5682 33.9473 48.0491 26.7031 43.6895 22.4045C40.4416 19.2019 30.8024 15.2875 26.103 22.8906C19.8381 33.0264 9.42875 63.9033 12.011 107.947C12.011 107.947 -9.07074 154.002 4.62571 162.87C12.9258 168.242 39.9703 174.025 43.9369 168.818C43.9369 168.818 52.7467 174.215 62.0461 159.65C71.9562 144.13 73.5236 144.087 75.2747 140.606C77.0259 137.125 71.3211 128.476 66.5433 127.704C62.5749 127.061 56.5356 135.562 56.5356 135.562C56.5356 135.562 62.4713 121.97 56.9704 116.089C48.171 106.682 40.7578 106.724 40.7578 106.724Z" fill="#9ECBB4"/>
<path d="M27.4666 93.6202C27.4666 93.6202 16.6791 100.101 13.6403 106.016C13.6403 106.016 15.5082 98.1253 27.4666 93.6202Z" fill="#629482"/>
<path d="M70.1372 128.634C70.1372 128.634 65.1052 129.827 65.0652 131.77C64.9886 135.428 71.185 140.45 72.7189 139.481C75.5927 137.666 76.8715 134.491 76.8715 134.491L70.1372 128.634Z" fill="#C7DCD3"/>
<path d="M33.6484 16.4294C33.6484 16.4294 30.1095 19.2078 31.3985 20.9159C33.8281 24.1317 42.6839 26.4083 43.2802 24.9991C43.8772 23.5905 43.8332 20.5967 43.8332 20.5967L33.6484 16.4294Z" fill="#C7DCD3"/>
<path d="M43.721 169.071C43.6295 169.058 43.5589 169.045 43.5485 169.042C25.7094 162.796 42.6293 131.26 42.6293 131.26C42.6293 131.26 38.3647 141.142 36.9978 153.856C36.0821 162.38 42.1214 167.406 43.9335 168.825C43.8691 168.909 43.7976 168.991 43.721 169.071Z" fill="#629482"/>
<path d="M57.0246 134.334C56.7807 134.99 56.5995 135.423 56.5411 135.559C54.9372 137.374 49.5992 143.482 48.9249 145.081C48.1303 146.965 46.2999 144.91 47.341 150.869C47.341 150.869 43.5146 146.469 47.3149 144.637C47.3149 144.637 53.2052 137.516 57.0246 134.334Z" fill="#629482"/>
<path d="M35.1324 19.7707C36.7668 21.3093 39.925 22.8862 42.1326 21.8643C44.9789 20.5452 50.4075 13.369 52.2144 11.86C52.7737 11.3931 54.2661 10.0139 54.084 9.17144C53.6746 7.27828 47.2641 11.3573 47.238 11.3207C47.0655 11.0864 48.0927 1.88978 46.5123 0.988942C44.6958 -0.0478102 43.6843 7.36715 43.4029 7.30181C43.0936 7.23124 42.4602 -0.0321282 39.9755 0.000106979C38.2757 0.0210163 38.9144 7.50828 38.7157 7.58408C38.6408 7.61283 35.0095 1.70334 33.4893 2.6704C31.8888 3.68885 34.9181 8.26276 34.8998 9.84403C34.898 9.98778 30.42 6.47589 29.7003 7.7984C29.2691 8.59121 31.9733 11.9872 32.3279 12.6319C33.7506 15.2238 33.4988 18.2321 35.1324 19.7707Z" fill="#EC9A6F"/>
<path d="M69.8652 129.466C69.6299 128.51 69.6456 126.854 70.4811 123.306C71.0587 120.852 72.1478 119.886 73.1471 119.21C75.3452 117.722 76.6346 120.348 76.9761 120.27C77.2984 120.195 81.1893 116.392 84.107 119.836C85.2326 121.164 84.2011 122.164 84.2011 122.164C84.2011 122.164 86.0098 122.002 86.9428 123.662C87.8524 125.279 86.3957 126.905 86.3957 126.905C86.3957 126.905 87.7383 127.361 87.2722 129.089C86.9237 130.38 85.7702 130.824 85.7702 130.824C85.7702 130.824 87.0125 130.92 86.5656 132.712C86.1143 134.518 85.5611 134.788 83.2123 135.408C81.0543 135.978 76.6842 136.428 74.8172 135.623C71.5562 134.219 70.5099 132.094 69.8652 129.466Z" fill="#EC9A6F"/>
<path d="M79.3407 123.977C78.8214 122.611 77.9903 121.354 77.1835 120.138C77.079 120.213 77.0076 120.261 76.9744 120.268C76.9431 120.275 76.9039 120.26 76.8568 120.227C77.1008 120.62 77.3935 121.09 77.5172 121.31C77.7411 121.708 77.9598 122.108 78.1576 122.52C78.324 122.867 78.4956 123.213 78.6411 123.57C79.0933 124.678 79.6221 125.958 78.8929 127.06C78.6158 127.479 78.2656 127.708 77.7307 127.657C77.3499 127.622 76.9413 127.425 76.6347 127.221C75.8192 126.68 75.0848 126.048 74.366 125.385C74.1186 125.155 73.8694 124.923 73.6507 124.665C73.5697 124.569 74.1534 125.473 74.4993 125.85C74.9105 126.296 75.4969 126.936 76.1529 127.433C76.1668 127.531 76.1747 127.612 76.1782 127.641C76.274 128.419 76.1302 129.238 75.8201 129.956C75.7208 130.183 75.4463 130.766 75.5378 130.651C75.9804 130.09 76.6007 129.089 76.7244 128.384C76.7532 128.224 76.788 128.029 76.7837 127.845C77.4205 128.19 78.0887 128.324 78.7047 127.978C78.7822 128.095 78.8998 128.2 78.9783 128.264C79.0584 128.329 79.1473 128.385 79.2422 128.433C79.2126 128.516 79.1987 128.631 79.1595 128.739C79.115 128.865 79.0811 128.993 79.0558 129.124C78.9094 129.868 79.3869 130.574 80.008 130.984C79.7963 131.243 79.6282 131.594 79.4888 131.888C79.3241 132.236 79.1786 132.615 79.1455 133.003C79.0889 133.656 79.6778 134.146 80.2224 134.38C81.3488 134.861 82.5625 134.859 83.7421 134.606H83.7787L83.7647 134.601C83.7569 134.603 83.7491 134.604 83.7421 134.606C83.4851 134.605 83.2281 134.61 82.9719 134.604C82.0249 134.582 80.6188 134.453 79.968 133.638C79.5053 133.059 79.7902 132.086 80.1265 131.517C80.198 131.397 80.3069 131.298 80.3966 131.193C80.5038 131.238 80.6118 131.274 80.7198 131.3C82.5128 131.731 84.5375 131.618 86.3061 131.069C86.1083 130.891 85.8853 130.841 85.8025 130.828C85.5089 130.903 85.1927 130.947 84.9723 130.975C83.5025 131.161 81.6494 131.434 80.3391 130.59C80.0011 130.372 79.6038 130.033 79.4914 129.628C79.4147 129.35 79.4714 129.049 79.5289 128.772C79.535 128.745 79.5707 128.659 79.5994 128.577C80.0316 128.711 80.5247 128.747 80.9193 128.754C82.1443 128.778 83.3927 128.349 84.5427 127.995C85.2929 127.764 86.0526 127.513 86.7182 127.08C86.5396 126.952 86.3941 126.904 86.3941 126.904C86.3941 126.904 86.4089 126.887 86.4342 126.856C86.3993 126.874 86.3645 126.891 86.3296 126.909C85.7834 127.176 85.2084 127.351 84.6281 127.531C83.4171 127.906 82.2122 128.2 80.9437 128.292C80.4463 128.329 79.7667 128.384 79.3206 128.102C79.1926 128.021 79.0837 127.903 79 127.771C79.0253 127.75 79.0506 127.728 79.0758 127.703C79.9375 126.9 79.8957 125.858 79.6099 124.803C79.5899 124.729 79.5689 124.655 79.5463 124.582C79.8382 124.362 80.1518 124.193 80.4036 124.05C81.3088 123.537 82.2549 123.007 83.2072 122.589C83.5565 122.436 83.9007 122.271 84.2465 122.111C84.3249 122.02 84.4818 121.81 84.5689 121.516C83.8092 121.748 83.0739 122.099 82.3621 122.444C81.8489 122.692 81.3515 122.968 80.8505 123.24C80.4558 123.455 80.0464 123.652 79.6343 123.833C79.548 123.872 79.44 123.922 79.3407 123.977Z" fill="#D06644"/>
<path d="M36.3366 92.7031C38.3884 101.225 40.7572 106.725 40.7572 106.725C40.7572 106.725 44.8546 106.703 50.5715 110.555C48.9754 111.796 46.9899 113.376 44.6263 115.323C42.8995 116.746 37.6818 121.969 29.4557 118.494C21.6043 115.178 22.6132 105.521 32.6749 95.0188C33.8484 93.7939 35.0795 93.056 36.3366 92.7031Z" fill="#D06644"/>
<path d="M38.3413 99.9589C39.6751 104.215 40.7554 106.724 40.7554 106.724C40.7554 106.724 44.8528 106.701 50.5706 110.554C48.9737 111.794 46.9881 113.375 44.6245 115.322C43.1522 116.536 39.1411 120.512 32.8909 119.502C23.2491 109.96 32.2724 102.952 38.3413 99.9589Z" fill="#EC9A6F"/>
<path d="M47.0542 101.981C47.0542 101.981 42.3501 104.772 43.3401 107.439C44.5099 110.592 27.1807 113.84 29.3874 108.8C30.2079 106.925 32.6655 105.273 35.5597 99.5434C38.2083 94.2996 47.0542 101.981 47.0542 101.981Z" fill="#EC9A6F"/>
<path d="M32.7583 103.573C33.4886 102.381 34.2944 100.854 35.1045 98.7794C37.2059 93.403 46.595 102.956 46.595 102.956C46.595 102.956 43.7143 104.564 43.3031 106.803C38.6306 106.867 34.6571 104.778 32.7583 103.573Z" fill="#D06644"/>
<path d="M30.8864 85.6015C30.8864 85.6015 29.8435 88.209 26.6705 90.2764C24.4681 91.7131 22.5 93.4477 21.7743 95.0551C21.0477 96.6625 26.3665 94.8303 28.7562 97.0667C31.146 99.3031 34.7677 99.9897 36.8978 98.9947C39.0288 98.0007 39.1926 92.7185 39.1926 92.7185L30.8864 85.6015Z" fill="#191919"/>
<path d="M35.3187 80.5769C37.7362 82.2913 38.5576 85.4149 37.153 87.549C35.7477 89.6824 32.643 90.0219 30.2266 88.3073C27.8098 86.5935 26.9873 83.47 28.3926 81.3365C29.7975 79.2037 32.9019 78.863 35.3187 80.5769Z" fill="#D06644"/>
<path d="M61.1643 68.6278C70.3099 74.6344 71.8854 88.0553 66.0924 97.7681C60.3007 107.481 44.3645 107.967 36.2733 101.462C29.9671 96.3926 27.1841 87.6012 32.9763 77.8878C38.768 68.1752 52.0186 62.6212 61.1643 68.6278Z" fill="#EC9A6F"/>
<path d="M34.5913 77.6622C41.2099 68.3062 53.7799 62.6058 62.0756 67.7164C70.7957 73.0892 71.5946 86.4877 65.3035 96.6975C61.9441 102.151 55.8647 105.168 49.7644 105.888C51.31 103.109 57.2334 92.304 57.25 89.9003C57.25 89.9003 48.9498 77.8443 50.417 72.0516C50.417 72.0516 40.668 73.1572 34.5913 77.6622Z" fill="#D06644"/>
<path d="M51.2377 69.9116C51.2377 69.9116 52.7746 81.7611 58.9254 88.5941C58.9254 88.5941 53.0865 103.615 44.525 108.149C44.525 108.149 52.4322 109.995 55.1687 109.152C59.1362 107.932 59.3575 111.013 62.0322 111.104C65.2992 111.214 87.4082 80.4778 64.3513 66.8362C40.8031 52.9028 35.6307 66.0608 33.5485 71.9938C31.7834 77.0278 33.3028 79.8618 33.3028 79.8618C33.3028 79.8618 40.2734 69.2957 51.2377 69.9116Z" fill="#2D2C2A"/>
<path d="M33.0757 73.5917C34.2867 74.4072 35.5264 75.1651 36.7862 75.8708C34.5385 77.9922 33.3031 79.8654 33.3031 79.8654C33.3031 79.8654 32.1017 77.6263 33.0757 73.5917ZM74.7131 85.2068C74.3358 98.0948 64.1652 111.18 62.0316 111.107C59.3569 111.017 59.1357 107.935 55.1681 109.157C52.4316 109.998 44.5244 108.153 44.5244 108.153C53.0859 103.619 58.9248 88.5976 58.9248 88.5976C57.3732 86.8735 56.1151 84.8304 55.1019 82.7395C63.1102 84.6048 70.3578 85.0997 74.7131 85.2068Z" fill="#191919"/>
<path d="M47.8409 82.9684C47.8409 82.9684 54.9117 79.1386 52.6369 87.2522C52.6369 87.2522 53.4376 82.0284 47.8409 82.9684Z" fill="#56181D"/>
<path d="M35.6275 78.8154C35.6275 78.8154 41.8515 72.249 41.7557 80.7931C41.7557 80.7931 40.2406 75.6041 35.6275 78.8154Z" fill="#56181D"/>
<path d="M40.992 85.1483C41.0859 85.7249 40.5519 87.4159 39.5133 87.7362C38.5711 88.026 38.6037 89.2378 38.9224 89.9694C38.9224 89.9694 36.7227 87.2823 38.2411 87.0655C40.153 86.7914 40.9364 84.8067 40.992 85.1483Z" fill="#56181D"/>
<path d="M38.1251 92.1514C39.3204 92.33 44.0476 92.918 45.6071 93.2874C47.1875 93.6621 45.1375 99.7205 40.9539 99.3006C37.0439 98.9077 36.5508 91.9161 38.1251 92.1514Z" fill="#56181D"/>
<path d="M37.5992 92.4241C37.7334 92.222 37.9102 92.1192 38.1246 92.1514C39.3207 92.33 44.0471 92.9181 45.6075 93.2875C45.908 93.3589 46.0771 93.636 46.1258 94.035C45.3566 94.7259 43.9704 94.8382 41.051 94.4357C38.7902 94.1238 37.9216 93.1995 37.5992 92.4241Z" fill="white"/>
<path d="M39.51 83.434C39.51 83.434 37.8163 78.6659 34.8481 82.9697C36.249 82.1263 37.7745 82.1002 39.51 83.434Z" fill="#56181D"/>
<path d="M49.8375 90.2934C49.8375 90.2934 51.0825 84.6522 45.2566 86.8512C47.2543 86.9479 48.867 87.9045 49.8375 90.2934Z" fill="#56181D"/>
</svg>
